%FSTAX34Y34*%
%MOMM*%
%SFA1B1*%

%IPPOS*%
%ADD10C,0.100000*%
%ADD13C,0.299999*%
%ADD25R,0.799998X0.749999*%
%ADD38C,0.253999*%
%ADD39C,0.150000*%
%ADD43C,0.799998*%
%ADD44C,0.374999*%
%ADD45O,1.149998X1.799996*%
%ADD46O,1.399997X1.999996*%
%ADD47C,2.539995*%
%ADD48C,0.599999*%
%ADD49C,0.507999*%
%ADD50R,0.999998X1.199998*%
%ADD51R,0.449999X1.299997*%
%LNblue_v05-1*%
%LPD*%
G36*
X1559125Y043718D02*
X1558958Y0436995D01*
X155881Y0436789*
X1558679Y0436563*
X1558567Y0436317*
X1558472Y0436051*
X1558395Y0435764*
X1558336Y0435457*
X1558296Y0435129*
X1558272Y0434782*
X1558267Y0434414*
X1555297Y0437384*
X1555665Y0437389*
X155634Y0437453*
X1556647Y0437512*
X1556934Y0437589*
X1557201Y0437683*
X1557447Y0437796*
X1557673Y0437926*
X1557878Y0438075*
X1558064Y0438241*
X1559125Y043718*
G37*
G36*
X1308706Y1153345D02*
X130854Y115316D01*
X1308391Y1152954*
X1308261Y1152728*
X1308148Y1152482*
X1308054Y1152216*
X1307977Y1151929*
X1307918Y1151622*
X1307877Y1151294*
X1307854Y1150947*
X1307849Y1150579*
X1304879Y1153549*
X1305247Y1153554*
X1305922Y1153618*
X1306229Y1153677*
X1306516Y1153754*
X1306782Y1153848*
X1307028Y1153961*
X1307254Y1154091*
X130746Y115424*
X1307645Y1154406*
X1308706Y1153345*
G37*
G36*
X1542495Y1153502D02*
X1542701Y1153354D01*
X1542926Y1153223*
X1543173Y115311*
X1543439Y1153015*
X1543726Y1152937*
X1544034Y1152876*
X1544362Y1152834*
X154471Y1152809*
X1545079Y1152801*
X1542089Y1149851*
X1542087Y1150218*
X1542066Y1150565*
X1542026Y1150892*
X1541969Y1151198*
X1541893Y1151485*
X15418Y1151751*
X1541688Y1151997*
X1541557Y1152223*
X1541409Y1152429*
X1541242Y1152615*
X154231Y1153668*
X1542495Y1153502*
G37*
G36*
X1613686Y0573142D02*
X1613318Y0573137D01*
X1612643Y0573073*
X1612336Y0573014*
X1612049Y0572937*
X1611783Y0572843*
X1611536Y057273*
X1611311Y05726*
X1611105Y0572451*
X161092Y0572285*
X1609859Y0573346*
X1610025Y0573532*
X1610174Y0573737*
X1610304Y0573963*
X1610417Y0574209*
X1610511Y0574475*
X1610588Y0574762*
X1610647Y0575069*
X1610688Y0575396*
X1610711Y0575744*
X1610716Y0576112*
X1613686Y0573142*
G37*
G36*
X1481952Y0567647D02*
X1482158Y0567498D01*
X1482383Y0567368*
X148263Y0567255*
X1482896Y0567161*
X1483183Y0567084*
X148349Y0567025*
X1483818Y0566984*
X1484165Y0566961*
X1484533Y0566956*
X1481563Y0563986*
X1481558Y0564354*
X1481494Y0565029*
X1481435Y0565336*
X1481358Y0565623*
X1481264Y0565889*
X1481151Y0566136*
X1481021Y0566361*
X1480872Y0566567*
X1480706Y0566752*
X1481767Y0567813*
X1481952Y0567647*
G37*
G36*
X1390834Y0518102D02*
X1390602Y0518093D01*
X1390371Y0518062*
X1390142Y0518009*
X1389914Y0517933*
X1389686Y0517835*
X138946Y0517714*
X1389235Y0517572*
X1389011Y0517406*
X1388789Y0517219*
X1388567Y0517009*
X1386771Y0518805*
X1386981Y0519027*
X1387168Y0519249*
X1387334Y0519473*
X1387476Y0519698*
X1387597Y0519924*
X1387695Y0520152*
X1387771Y052038*
X1387824Y0520609*
X1387856Y052084*
X1387864Y0521072*
X1390834Y0518102*
G37*
G36*
X1359056Y1154595D02*
X135889Y115441D01*
X1358741Y1154204*
X1358611Y1153978*
X1358498Y1153732*
X1358404Y1153466*
X1358327Y1153179*
X1358268Y1152872*
X1358227Y1152544*
X1358204Y1152197*
X1358199Y1151829*
X1355229Y1154799*
X1355598Y1154804*
X1356272Y1154868*
X1356579Y1154927*
X1356866Y1155004*
X1357132Y1155098*
X1357378Y1155211*
X1357604Y1155341*
X135781Y115549*
X1357995Y1155656*
X1359056Y1154595*
G37*
G36*
X1377673Y0446328D02*
X1378196Y0445895D01*
X1378455Y044572*
X1378712Y0445572*
X1378967Y044545*
X1379221Y0445355*
X1379474Y0445288*
X1379723Y0445247*
X1379972Y0445234*
Y0443734*
X1379723Y0443721*
X1379474Y044368*
X1379221Y0443613*
X1378967Y0443518*
X1378712Y0443396*
X1378455Y0443248*
X1378196Y0443073*
X1377935Y044287*
X1377673Y044264*
X1377409Y0442384*
Y0446584*
X1377673Y0446328*
G37*
G36*
X1562792Y0452267D02*
X1563014Y0452079D01*
X1563238Y0451915*
X1563463Y0451772*
X1563689Y0451651*
X1563917Y0451553*
X1564145Y0451477*
X1564374Y0451424*
X1564605Y0451393*
X1564837Y0451384*
X1561867Y0448414*
X1561858Y0448646*
X1561827Y0448877*
X1561774Y0449106*
X1561698Y0449335*
X15616Y0449562*
X1561479Y0449788*
X1561338Y0450013*
X1561171Y0450237*
X1560984Y0450459*
X1560774Y0450681*
X156257Y0452477*
X1562792Y0452267*
G37*
G36*
X136948Y0453326D02*
X1369665Y0453185D01*
X1369865Y0453061*
X137008Y0452953*
X137031Y0452862*
X1370555Y0452787*
X1370815Y0452729*
X137109Y0452687*
X137138Y0452662*
X1371685Y0452654*
Y0450114*
X137138Y0450106*
X137109Y0450081*
X1370815Y0450039*
X1370555Y0449981*
X137031Y0449906*
X137008Y0449815*
X1369865Y0449707*
X1369665Y0449583*
X136948Y0449442*
X1369309Y0449284*
Y0453484*
X136948Y0453326*
G37*
G36*
X1407842Y0449284D02*
X1407671Y0449442D01*
X1407486Y0449583*
X1407287Y0449707*
X1407071Y0449815*
X1406841Y0449906*
X1406596Y0449981*
X1406336Y0450039*
X1406061Y0450081*
X1405771Y0450106*
X1405466Y0450114*
Y0452654*
X1405771Y0452662*
X1406061Y0452687*
X1406336Y0452729*
X1406596Y0452787*
X1406841Y0452862*
X1407071Y0452953*
X1407287Y0453061*
X1407486Y0453185*
X1407671Y0453326*
X1407842Y0453484*
Y0449284*
G37*
G36*
X1388664Y114626D02*
X1388754Y1145577D01*
X1388824Y1145267*
X1388908Y1144979*
X1389009Y1144712*
X1389126Y1144465*
X1389258Y114424*
X1389407Y1144037*
X1389571Y1143854*
X138856Y1142743*
X1388372Y1142912*
X1388165Y114306*
X1387938Y1143188*
X1387692Y1143297*
X1387427Y1143386*
X1387143Y1143455*
X138684Y1143503*
X1386516Y1143532*
X1386173Y1143541*
X1385811Y1143531*
X1388642Y1146633*
X1388664Y114626*
G37*
G36*
X1280276Y0448522D02*
X1280307Y0448291D01*
X128036Y0448062*
X1280436Y0447834*
X1280534Y0447606*
X1280655Y044738*
X1280797Y0447155*
X1280962Y0446931*
X128115Y0446709*
X128136Y0446487*
X1279564Y0444691*
X1279342Y0444901*
X1279119Y0445088*
X1278896Y0445254*
X1278671Y0445396*
X1278445Y0445517*
X1278218Y0445615*
X1277989Y0445691*
X127776Y0445744*
X1277529Y0445775*
X1277297Y0445784*
X1280267Y0448754*
X1280276Y0448522*
G37*
G36*
X1763282Y044961D02*
X176332Y0449173D01*
X1763383Y0448788*
X1763472Y0448453*
X1763586Y0448171*
X1763726Y0447939*
X1763891Y0447759*
X1764082Y0447631*
X1764298Y0447554*
X1764539Y0447528*
X1759459*
X17597Y0447554*
X1759916Y0447631*
X1760107Y0447759*
X1760272Y0447939*
X1760411Y0448171*
X1760526Y0448453*
X1760615Y0448788*
X1760678Y0449173*
X1760716Y044961*
X1760729Y0450098*
X1763269*
X1763282Y044961*
G37*
G36*
X1779226Y0448768D02*
X1779249Y0448507D01*
X1779287Y0448278*
X1779339Y0448079*
X1779407Y0447911*
X1779489Y0447773*
X1779587Y0447666*
X1779699Y0447589*
X1779827Y0447543*
X1779969Y0447528*
X1776969*
X1777111Y0447543*
X1777239Y0447589*
X1777351Y0447666*
X1777449Y0447773*
X1777532Y0447911*
X1777599Y0448079*
X1777651Y0448278*
X1777689Y0448507*
X1777712Y0448768*
X1777719Y0449058*
X1779219*
X1779226Y0448768*
G37*
G36*
X1531572Y1169462D02*
X1531396Y1169747D01*
X1531211Y1170002*
X1531016Y1170227*
X1530811Y1170421*
X1530596Y1170586*
X1530372Y1170721*
X1530138Y1170826*
X1529894Y1170901*
X1529641Y1170946*
X1529378Y1170961*
X1529788Y1172461*
X1530009Y1172472*
X1530245Y1172504*
X1530495Y1172557*
X1530759Y1172631*
X1531037Y1172727*
X1531636Y1172982*
X1531956Y1173141*
X153264Y1173524*
X1531572Y1169462*
G37*
G36*
X1561534Y1167792D02*
X1561609Y1167741D01*
X1561695Y1167696*
X1561792Y1167657*
X1561899Y1167624*
X1562017Y1167597*
X1562146Y1167576*
X1562286Y1167561*
X1562598Y1167549*
Y1166049*
X1562437Y1166046*
X1562146Y1166022*
X1562017Y1166001*
X1561899Y1165974*
X1561792Y1165941*
X1561695Y1165902*
X1561609Y1165857*
X1561534Y1165806*
X156147Y1165749*
Y1167849*
X1561534Y1167792*
G37*
G36*
X1557881Y1166515D02*
X1557889Y1166424D01*
X155791Y116633*
X1557944Y1166233*
X1557991Y1166133*
X1558051Y1166029*
X1558123Y1165922*
X1558209Y1165812*
X1558307Y1165699*
X1558419Y1165583*
X1557208Y1164672*
X1557091Y1164786*
X1556767Y1165059*
X1556668Y1165128*
X1556572Y1165186*
X1556481Y1165233*
X1556394Y1165269*
X1556311Y1165294*
X1556232Y1165308*
X1557886Y1166602*
X1557881Y1166515*
G37*
G36*
X1553152Y1172837D02*
X1553176Y1172546D01*
X1553197Y1172417*
X1553224Y1172299*
X1553257Y1172192*
X1553296Y1172095*
X1553341Y1172009*
X1553392Y1171934*
X1553449Y117187*
X1551349*
X1551406Y1171934*
X1551457Y1172009*
X1551502Y1172095*
X1551541Y1172192*
X1551574Y1172299*
X1551601Y1172417*
X1551622Y1172546*
X1551637Y1172686*
X1551649Y1172998*
X1553149*
X1553152Y1172837*
G37*
G36*
X1536796Y1180668D02*
X1536884Y1179986D01*
X1536952Y1179677*
X1537037Y1179388*
X1537137Y1179121*
X1537253Y1178875*
X1537385Y117865*
X1537533Y1178446*
X1537698Y1178263*
X1536682Y1177157*
X1536494Y1177326*
X1536287Y1177474*
X1536061Y1177603*
X1535815Y1177711*
X1535549Y1177801*
X1535265Y117787*
X153496Y117792*
X1534637Y1177951*
X1534294Y1177961*
X1533931Y1177952*
X1536776Y1181041*
X1536796Y1180668*
G37*
G36*
X1561152Y1172837D02*
X1561176Y1172546D01*
X1561197Y1172417*
X1561224Y1172299*
X1561257Y1172192*
X1561296Y1172095*
X1561341Y1172009*
X1561392Y1171934*
X1561449Y117187*
X1559349*
X1559406Y1171934*
X1559457Y1172009*
X1559502Y1172095*
X1559541Y1172192*
X1559574Y1172299*
X1559601Y1172417*
X1559622Y1172546*
X1559637Y1172686*
X1559649Y1172998*
X1561149*
X1561152Y1172837*
G37*
G36*
X1557152D02*
X1557176Y1172546D01*
X1557197Y1172417*
X1557224Y1172299*
X1557257Y1172192*
X1557296Y1172095*
X1557341Y1172009*
X1557392Y1171934*
X1557449Y117187*
X1555349*
X1555406Y1171934*
X1555457Y1172009*
X1555502Y1172095*
X1555541Y1172192*
X1555574Y1172299*
X1555601Y1172417*
X1555623Y1172546*
X1555637Y1172686*
X1555649Y1172998*
X1557149*
X1557152Y1172837*
G37*
G36*
X1481463Y0420197D02*
X1481998Y0419771D01*
X1482262Y0419598*
X1482522Y0419452*
X148278Y0419333*
X1483036Y041924*
X1483288Y0419173*
X1483538Y0419133*
X1483785Y041912*
X1483821Y041762*
X1483571Y0417606*
X148332Y0417565*
X1483068Y0417497*
X1482816Y0417401*
X1482563Y0417278*
X148231Y0417127*
X1482056Y0416949*
X1481802Y0416743*
X1481546Y041651*
X1481291Y041625*
X1481191Y0420449*
X1481463Y0420197*
G37*
G36*
X1266929Y052293D02*
X1267151Y0522742D01*
X1267375Y0522577*
X1267599Y0522433*
X1267825Y0522311*
X1268053Y0522212*
X1268281Y0522134*
X126851Y0522079*
X1268741Y0522045*
X1268972Y0522034*
X1265967Y05191*
X1265961Y0519332*
X1265932Y0519562*
X1265881Y0519792*
X1265807Y0520021*
X126571Y0520248*
X1265591Y0520474*
X1265449Y05207*
X1265284Y0520923*
X1265097Y0521146*
X1264888Y0521367*
X1266707Y052314*
X1266929Y052293*
G37*
G36*
X1561273Y0428027D02*
X1561796Y0427596D01*
X1562055Y042742*
X1562312Y0427271*
X1562567Y042715*
X1562821Y0427056*
X1563073Y0426988*
X1563323Y0426948*
X1563572Y0426934*
Y0425434*
X1563323Y042542*
X1563073Y042538*
X1562821Y0425312*
X1562567Y0425218*
X1562312Y0425097*
X1562055Y0424948*
X1561796Y0424772*
X1561535Y042457*
X1561273Y0424341*
X1561009Y0424084*
Y0428284*
X1561273Y0428027*
G37*
G36*
X1453024Y042808D02*
X1452858Y0427895D01*
X1452709Y0427689*
X1452579Y0427463*
X1452466Y0427217*
X1452372Y0426951*
X1452295Y0426664*
X1452236Y0426357*
X1452195Y042603*
X1452172Y0425682*
X1452167Y0425314*
X1449197Y0428284*
X1449565Y0428289*
X145024Y0428353*
X1450547Y0428412*
X1450834Y0428489*
X14511Y0428583*
X1451347Y0428696*
X1451572Y0428826*
X1451778Y0428975*
X1451963Y0429141*
X1453024Y042808*
G37*
G36*
X154841Y0460126D02*
D01*
X1559588Y0448948*
X1559653Y044886*
X1559716Y044876*
X1559761Y0448677*
X1559791Y0448608*
X1559805Y0448564*
X1559769Y0448384*
X1560157Y0446433*
X1560541Y0445858*
X1559863Y0444588*
X1465667*
X1464594Y0444374*
X1463684Y0443767*
X1450452Y0430534*
X1450411Y043051*
X1450333Y0430475*
X1450228Y0430437*
X1450091Y0430401*
X1449951Y0430374*
X1449454Y0430327*
X1449445*
X1449167Y0430382*
X1447216Y0429994*
X1445562Y0428889*
X1444457Y0427235*
X1444069Y0425284*
X1444457Y0423333*
X1445562Y0421679*
X1447216Y0420574*
X1449167Y0420186*
X1451118Y0420574*
X1452772Y0421679*
X1453877Y0423333*
X1454265Y0425284*
X145421Y0425562*
Y04256*
X1454226Y0425835*
X1454251Y0426038*
X1454284Y0426208*
X145432Y0426345*
X1454358Y0426451*
X1454393Y0426528*
X1454417Y0426569*
X1466828Y043898*
X1551034*
X1551477Y043771*
X1550557Y0436335*
X1550169Y0434384*
X1550557Y0432433*
X1551663Y0430779*
X1553317Y0429674*
X1553845Y0429569*
X1554331Y0428395*
X1554157Y0428135*
X1553769Y0426184*
X1554104Y0424499*
X1553417Y0423229*
X1486257*
X1485184Y0423015*
X1484274Y0422408*
X1483953Y0422086*
X1482704Y0421904*
X148105Y0423009*
X1479099Y0423397*
X1477148Y0423009*
X1475494Y0421904*
X1474389Y042025*
X1474001Y0418299*
X1474389Y0416348*
X1474616Y0416008*
X1474018Y0414888*
X1448346*
X1416767Y0446467*
X1415857Y0447074*
X1414784Y0447288*
X1414109Y0448558*
X1414694Y0449433*
X1415082Y0451384*
X1415046Y0451564*
X141506Y0451608*
X141509Y0451677*
X1415135Y0451761*
X1415198Y045186*
X1415263Y0451948*
X1433065Y046975*
X1482667*
X1483943Y0470004*
X1485024Y0470727*
X151057Y0496272*
X1512264*
X154841Y0460126*
G37*
G36*
X1406028Y0416629D02*
X1405753Y041688D01*
X1405212Y0417302*
X1404947Y0417474*
X1404685Y0417619*
X1404426Y0417738*
X140417Y041783*
X1403917Y0417896*
X1403668Y0417936*
X1403422Y0417949*
X140337Y0419449*
X1403621Y0419463*
X1403872Y0419504*
X1404124Y0419573*
X1404375Y0419669*
X1404627Y0419793*
X1404879Y0419945*
X1405131Y0420124*
X1405383Y042033*
X1405636Y0420565*
X1405888Y0420826*
X1406028Y0416629*
G37*
G36*
X1432959Y0560737D02*
X1432792Y0560552D01*
X1432644Y0560346*
X1432514Y056012*
X1432401Y0559874*
X1432306Y0559607*
X143223Y0559321*
X1432171Y0559014*
X143213Y0558686*
X1432107Y0558339*
X1432102Y0557971*
X1429131Y056094*
X1429499Y0560945*
X1430174Y0561009*
X1430481Y0561068*
X1430768Y0561145*
X1431036Y056124*
X1431281Y0561352*
X1431507Y0561483*
X1431712Y0561631*
X1431898Y0561797*
X1432959Y0560737*
G37*
G36*
X1475784Y0561564D02*
X1475643Y0561379D01*
X1475519Y0561179*
X1475411Y0560964*
X1475319Y0560734*
X1475245Y0560489*
X1475187Y0560229*
X1475145Y0559954*
X147512Y0559664*
X1475112Y0559359*
X1472572*
X1472565Y0559664*
X1472539Y0559954*
X1472497Y0560229*
X1472439Y0560489*
X1472365Y0560734*
X1472273Y0560964*
X1472165Y0561179*
X1472041Y0561379*
X14719Y0561564*
X1471742Y0561735*
X1475942*
X1475784Y0561564*
G37*
G36*
X1600815Y0575074D02*
X1600655Y0575361D01*
X1600483Y0575618*
X1600299Y0575844*
X1600104Y057604*
X1599898Y0576207*
X1599679Y0576342*
X1599449Y0576448*
X1599208Y0576524*
X1598954Y0576569*
X1598689Y0576584*
X1599177Y0578084*
X1599391Y0578094*
X1599622Y0578124*
X1599869Y0578174*
X1600133Y0578244*
X1600711Y0578444*
X1601025Y0578573*
X1602067Y0579083*
X1600815Y0575074*
G37*
G36*
X1515009Y050363D02*
X1514686Y0503271D01*
X1514434Y0502912*
X1514255Y0502552*
X1514147Y0502193*
X1514111Y0501834*
X1514147Y0501475*
X1514255Y0501116*
X1514434Y0500756*
X1514686Y0500397*
X1515009Y0500038*
X1513213Y0498242*
X1512854Y0498565*
X1512495Y0498817*
X1512135Y0498996*
X1511776Y0499104*
X1511417Y049914*
X1511058Y0499104*
X1510699Y0498996*
X1510339Y0498817*
X150998Y0498565*
X1509621Y0498242*
X1507825Y0500038*
X1508148Y0500397*
X15084Y0500756*
X1508579Y0501116*
X1508687Y0501475*
X1508723Y0501834*
X1508687Y0502193*
X1508579Y0502552*
X15084Y0502912*
X1508148Y0503271*
X1507825Y050363*
X1509621Y0505426*
X150998Y0505103*
X1510339Y0504851*
X1510699Y0504672*
X1511058Y0504564*
X1511417Y0504528*
X1511776Y0504564*
X1512135Y0504672*
X1512495Y0504851*
X1512854Y0505103*
X1513213Y0505426*
X1515009Y050363*
G37*
G36*
X1779226Y0504768D02*
X1779249Y0504508D01*
X1779287Y0504278*
X1779339Y0504079*
X1779407Y0503911*
X1779489Y0503773*
X1779587Y0503666*
X1779699Y0503589*
X1779827Y0503543*
X1779969Y0503528*
X1776969*
X1777111Y0503543*
X1777239Y0503589*
X1777351Y0503666*
X1777449Y0503773*
X1777532Y0503911*
X1777599Y0504079*
X1777651Y0504278*
X1777689Y0504508*
X1777712Y0504768*
X1777719Y0505059*
X1779219*
X1779226Y0504768*
G37*
G36*
X1763282Y050561D02*
X176332Y0505173D01*
X1763383Y0504788*
X1763472Y0504453*
X1763586Y0504171*
X1763726Y0503939*
X1763891Y0503759*
X1764082Y0503631*
X1764298Y0503555*
X1764539Y0503528*
X1759459*
X17597Y0503555*
X1759916Y0503631*
X1760107Y0503759*
X1760272Y0503939*
X1760411Y0504171*
X1760526Y0504453*
X1760615Y0504788*
X1760678Y0505173*
X1760716Y050561*
X1760729Y0506099*
X1763269*
X1763282Y050561*
G37*
G36*
X1780306Y0592332D02*
X1779874Y0591809D01*
X1779698Y0591551*
X1779549Y0591293*
X1779428Y0591038*
X1779334Y0590784*
X1779266Y0590532*
X1779226Y0590282*
X1779212Y0590033*
X1777712*
X1777698Y0590282*
X1777658Y0590532*
X1777591Y0590784*
X1777496Y0591038*
X1777374Y0591293*
X1777226Y0591551*
X1777051Y0591809*
X1776848Y059207*
X1776619Y0592332*
X1776362Y0592596*
X1780562*
X1780306Y0592332*
G37*
G36*
X157383Y0465717D02*
X1573871Y0465451D01*
X1573939Y0465184*
X1574033Y0464918*
X1574154Y0464653*
X1574303Y0464387*
X1574479Y0464121*
X1574681Y0463856*
X157491Y0463591*
X1575167Y0463326*
X1570967*
X1571224Y0463591*
X1571453Y0463856*
X1571655Y0464121*
X1571831Y0464387*
X1571979Y0464653*
X1572101Y0464918*
X1572196Y0465184*
X1572263Y0465451*
X1572304Y0465717*
X1572317Y0465984*
X1573817*
X157383Y0465717*
G37*
G36*
X1665037Y0938884D02*
X1664669Y0938879D01*
X1663994Y0938815*
X1663687Y0938756*
X16634Y0938679*
X1663134Y0938585*
X1662887Y0938472*
X1662662Y0938342*
X1662456Y0938193*
X1662271Y0938027*
X166121Y0939088*
X1661376Y0939273*
X1661525Y0939479*
X1661655Y0939705*
X1661768Y0939951*
X1661862Y0940217*
X1661939Y0940504*
X1661998Y0940811*
X1662039Y0941139*
X1662062Y0941486*
X1662067Y0941854*
X1665037Y0938884*
G37*
G36*
X1218384Y0592561D02*
X1218608Y0592379D01*
X1218832Y0592224*
X1219055Y0592098*
X1219277Y0592001*
X1219498Y0591931*
X1219719Y059189*
X1219939Y0591877*
X1220158Y0591892*
X1220377Y0591936*
X1218228Y0588327*
X1218169Y0588535*
X1218093Y0588745*
X1218Y0588955*
X121789Y0589167*
X1217764Y058938*
X121762Y0589595*
X1217281Y0590027*
X1217086Y0590246*
X1216874Y0590466*
X121816Y0592772*
X1218384Y0592561*
G37*
G36*
X1626309Y0771571D02*
X1626168Y0771386D01*
X1626044Y0771186*
X1625936Y0770971*
X1625844Y0770741*
X162577Y0770496*
X1625712Y0770236*
X162567Y0769961*
X1625645Y0769671*
X1625637Y0769366*
X1623097*
X1623089Y0769671*
X1623064Y0769961*
X1623022Y0770236*
X1622964Y0770496*
X1622889Y0770741*
X1622798Y0770971*
X162269Y0771186*
X1622566Y0771386*
X1622425Y0771571*
X1622267Y0771742*
X1626467*
X1626309Y0771571*
G37*
G36*
X1695347Y0608368D02*
X1695524Y0608219D01*
X1695717Y0608087*
X1695926Y0607973*
X169615Y0607876*
X1696392Y0607797*
X1696649Y0607736*
X1696922Y0607692*
X1697212Y0607666*
X1697517Y0607657*
X1697348Y0605117*
X1697044Y0605109*
X1696753Y0605086*
X1696477Y0605047*
X1696215Y0604993*
X1695966Y0604923*
X1695732Y0604838*
X1695512Y0604737*
X1695305Y0604621*
X1695113Y0604489*
X1694935Y0604342*
X1695187Y0608535*
X1695347Y0608368*
G37*
G36*
X1350924Y049598D02*
X1350758Y0495795D01*
X1350609Y0495589*
X1350479Y0495363*
X1350366Y0495117*
X1350272Y0494851*
X1350195Y0494564*
X1350137Y0494257*
X1350095Y049393*
X1350072Y0493582*
X1350067Y0493214*
X1347097Y0496184*
X1347465Y0496189*
X134814Y0496253*
X1348447Y0496312*
X1348734Y0496389*
X1349Y0496483*
X1349246Y0496596*
X1349472Y0496726*
X1349678Y0496875*
X1349863Y0497041*
X1350924Y049598*
G37*
G36*
X1279294Y0500973D02*
X1279033Y050072D01*
X1278799Y0500468*
X1278592Y0500216*
X1278413Y0499964*
X1278261Y0499712*
X1278137Y049946*
X1278041Y0499209*
X1277972Y0498957*
X1277931Y0498706*
X1277917Y0498455*
X1276417Y0498507*
X1276404Y0498753*
X1276364Y0499002*
X1276298Y0499255*
X1276206Y0499511*
X1276087Y049977*
X1275942Y0500032*
X127577Y0500297*
X1275572Y0500566*
X1275348Y0500838*
X1275097Y0501113*
X1279294Y0500973*
G37*
G36*
X1779827Y0491635D02*
X1779699Y0491589D01*
X1779587Y0491512*
X1779489Y0491405*
X1779407Y0491267*
X1779339Y0491099*
X1779287Y04909*
X1779249Y0490671*
X1779226Y049041*
X1779219Y049012*
X1777719*
X1777712Y049041*
X1777689Y0490671*
X1777651Y04909*
X1777599Y0491099*
X1777532Y0491267*
X1777449Y0491405*
X1777351Y0491512*
X1777239Y0491589*
X1777111Y0491635*
X1776969Y049165*
X1779969*
X1779827Y0491635*
G37*
G36*
X157491Y0488776D02*
X1574479Y0488253D01*
X1574303Y0487994*
X1574154Y0487737*
X1574033Y0487482*
X1573939Y0487228*
X1573871Y0486976*
X157383Y0486726*
X1573817Y0486477*
X1572317*
X1572304Y0486726*
X1572263Y0486976*
X1572196Y0487228*
X1572101Y0487482*
X1571979Y0487737*
X1571831Y0487994*
X1571655Y0488253*
X1571453Y0488514*
X1571224Y0488776*
X1570967Y048904*
X1575167*
X157491Y0488776*
G37*
G36*
X1652509Y0647971D02*
X1652368Y0647786D01*
X1652244Y0647586*
X1652136Y0647371*
X1652044Y0647141*
X165197Y0646896*
X1651912Y0646636*
X165187Y0646361*
X1651845Y0646071*
X1651837Y0645766*
X1649297*
X1649289Y0646071*
X1649264Y0646361*
X1649222Y0646636*
X1649164Y0646896*
X164909Y0647141*
X1648998Y0647371*
X164889Y0647586*
X1648766Y0647786*
X1648625Y0647971*
X1648467Y0648142*
X1652667*
X1652509Y0647971*
G37*
G36*
X1764298Y0491624D02*
X1764082Y0491547D01*
X1763891Y0491419*
X1763726Y0491239*
X1763586Y0491007*
X1763472Y0490725*
X1763383Y049039*
X176332Y0490005*
X1763282Y0489568*
X1763269Y048908*
X1760729*
X1760716Y0489568*
X1760678Y0490005*
X1760615Y049039*
X1760526Y0490725*
X1760411Y0491007*
X1760272Y0491239*
X1760107Y0491419*
X1759916Y0491547*
X17597Y0491624*
X1759459Y049165*
X1764539*
X1764298Y0491624*
G37*
G36*
X1368445Y0455597D02*
X136847Y0455307D01*
X1368512Y0455032*
X136857Y0454772*
X1368644Y0454527*
X1368736Y0454297*
X1368844Y0454082*
X1368968Y0453882*
X1369109Y0453697*
X1369267Y0453526*
X1365067*
X1365225Y0453697*
X1365366Y0453882*
X136549Y0454082*
X1365598Y0454297*
X1365689Y0454527*
X1365764Y0454772*
X1365822Y0455032*
X1365864Y0455307*
X1365889Y0455597*
X1365897Y0455902*
X1368437*
X1368445Y0455597*
G37*
G36*
X1365468Y0583081D02*
X1365259Y0582859D01*
X1365072Y0582636*
X1364908Y0582412*
X1364767Y0582187*
X1364649Y0581961*
X1364553Y0581734*
X1364481Y0581505*
X1364432Y0581275*
X1364405Y0581045*
X1364401Y0580813*
X1361362Y0583712*
X1361594Y0583726*
X1361824Y0583762*
X1362053Y0583819*
X1362281Y0583898*
X1362508Y0583999*
X1362734Y0584122*
X1362958Y0584267*
X1363182Y0584433*
X1363404Y0584621*
X1363626Y0584831*
X1365468Y0583081*
G37*
G36*
X157491Y0458778D02*
X1574479Y0458255D01*
X1574303Y0457997*
X1574154Y0457739*
X1574033Y0457484*
X1573939Y045723*
X1573871Y0456978*
X157383Y0456728*
X1573817Y0456479*
X1572317*
X1572304Y0456728*
X1572263Y0456978*
X1572196Y045723*
X1572101Y0457484*
X1571979Y0457739*
X1571831Y0457997*
X1571655Y0458255*
X1571453Y0458516*
X1571224Y0458778*
X1570967Y0459042*
X1575167*
X157491Y0458778*
G37*
G36*
X1309066Y0456327D02*
X1309097Y0456096D01*
X1309151Y0455866*
X1309226Y0455638*
X1309324Y0455411*
X1309444Y0455185*
X1309587Y045496*
X1309752Y0454736*
X130994Y0454513*
X1310149Y0454292*
X1308351Y0452498*
X1308129Y0452708*
X1307907Y0452895*
X1307683Y045306*
X1307458Y0453203*
X1307232Y0453324*
X1307005Y0453422*
X1306776Y0453498*
X1306547Y0453552*
X1306316Y0453583*
X1306085Y0453592*
X1309058Y0456558*
X1309066Y0456327*
G37*
G36*
X1666718Y0579414D02*
X1667262Y0578993D01*
X1667528Y0578822*
X1667792Y0578678*
X1668051Y0578559*
X1668307Y0578467*
X166856Y0578402*
X1668809Y0578362*
X1669055Y0578349*
X1669116Y0576849*
X1668864Y0576835*
X1668613Y0576794*
X1668362Y0576725*
X1668111Y0576628*
X166786Y0576504*
X1667609Y0576352*
X1667358Y0576172*
X1667107Y0575964*
X1666857Y057573*
X1666606Y0575467*
X1666441Y0579664*
X1666718Y0579414*
G37*
G36*
X1704473Y0575499D02*
X1704209Y0575755D01*
X1703686Y0576188*
X1703427Y0576363*
X170317Y0576511*
X1702915Y0576633*
X1702661Y0576728*
X1702409Y0576795*
X1702159Y0576836*
X170191Y0576849*
Y0578349*
X1702159Y0578362*
X1702409Y0578403*
X1702661Y057847*
X1702915Y0578565*
X170317Y0578687*
X1703427Y0578835*
X1703686Y057901*
X1703947Y0579213*
X1704209Y0579443*
X1704473Y0579699*
Y0575499*
G37*
G36*
X1414077Y0453681D02*
X1413867Y0453459D01*
X141368Y0453236*
X1413514Y0453013*
X1413372Y0452788*
X1413251Y0452562*
X1413153Y0452335*
X1413077Y0452106*
X1413024Y0451877*
X1412993Y0451646*
X1412984Y0451414*
X1410014Y0454384*
X1410246Y0454393*
X1410476Y0454424*
X1410706Y0454477*
X1410935Y0454553*
X1411162Y0454651*
X1411388Y0454772*
X1411613Y0454914*
X1411836Y0455079*
X1412059Y0455267*
X1412281Y0455477*
X1414077Y0453681*
G37*
G36*
X1619768Y0581613D02*
X1619515Y0581875D01*
X1619262Y0582109*
X1619009Y0582315*
X1618757Y0582494*
X1618505Y0582645*
X1618253Y0582769*
X1618001Y0582865*
X161775Y0582934*
X1617499Y0582975*
X1617248Y0582989*
X1617296Y0584489*
X1617542Y0584502*
X1617792Y0584542*
X1618044Y0584608*
X16183Y0584701*
X1618558Y058482*
X161882Y0584965*
X1619085Y0585137*
X1619353Y0585335*
X1619624Y058556*
X1619899Y0585811*
X1619768Y0581613*
G37*
G36*
X1307246Y0460845D02*
X1307271Y0460556D01*
X1307314Y0460282*
X1307374Y0460023*
X1307451Y045978*
X1307545Y0459552*
X1307656Y045934*
X1307784Y0459144*
X130793Y0458963*
X1308092Y0458797*
X1303894Y045867*
X1304047Y0458844*
X1304183Y0459033*
X1304304Y0459237*
X1304408Y0459454*
X1304496Y0459687*
X1304569Y0459934*
X1304625Y0460195*
X1304665Y0460471*
X1304689Y0460761*
X1304697Y0461066*
X1307237Y0461151*
X1307246Y0460845*
G37*
G36*
X1664937Y0948684D02*
X1664569Y0948679D01*
X1663894Y0948615*
X1663587Y0948556*
X16633Y0948479*
X1663034Y0948385*
X1662788Y0948272*
X1662562Y0948142*
X1662356Y0947993*
X1662171Y0947827*
X166111Y0948888*
X1661276Y0949073*
X1661425Y0949279*
X1661555Y0949504*
X1661668Y0949751*
X1661762Y0950017*
X1661839Y0950304*
X1661898Y0950611*
X1661939Y0950938*
X1661962Y0951286*
X1661967Y0951654*
X1664937Y0948684*
G37*
G36*
X133053Y046324D02*
X1330571Y046299D01*
X1330638Y0462738*
X1330733Y0462484*
X1330855Y0462229*
X1331003Y0461972*
X1331179Y0461713*
X1331381Y0461452*
X133161Y046119*
X1331867Y0460926*
X1327667*
X1327923Y046119*
X1328355Y0461713*
X1328531Y0461972*
X132868Y0462229*
X1328801Y0462484*
X1328895Y0462738*
X1328963Y046299*
X1329004Y046324*
X1329017Y0463489*
X1330517*
X133053Y046324*
G37*
G36*
X1664937Y0958384D02*
X1664569Y0958379D01*
X1663894Y0958315*
X1663587Y0958256*
X16633Y0958179*
X1663034Y0958085*
X1662788Y0957972*
X1662562Y0957842*
X1662356Y0957693*
X1662171Y0957527*
X166111Y0958588*
X1661276Y0958773*
X1661425Y0958979*
X1661555Y0959204*
X1661668Y0959451*
X1661762Y0959717*
X1661839Y0960004*
X1661898Y0960311*
X1661939Y0960638*
X1661962Y0960986*
X1661967Y0961354*
X1664937Y0958384*
G37*
G36*
X1423799Y0514449D02*
X1424004Y0514301D01*
X1424229Y051417*
X1424476Y0514056*
X1424742Y0513958*
X142503Y0513878*
X1425339Y0513814*
X1425667Y0513768*
X1426017Y0513738*
X1426388Y0513726*
X1423357Y0510817*
X1423359Y0511183*
X1423343Y0511528*
X1423307Y0511854*
X1423253Y0512159*
X142318Y0512445*
X1423088Y0512711*
X1422977Y0512957*
X1422847Y0513184*
X1422699Y051339*
X1422532Y0513577*
X1423615Y0514615*
X1423799Y0514449*
G37*
G36*
X1412246Y0585285D02*
X1412075Y0585443D01*
X141189Y0585584*
X141169Y0585708*
X1411475Y0585816*
X1411245Y0585908*
X1411Y0585982*
X141074Y058604*
X1410465Y0586082*
X1410175Y0586107*
X140987Y0586115*
Y0588655*
X1410175Y0588663*
X1410465Y0588688*
X141074Y058873*
X1411Y0588788*
X1411245Y0588862*
X1411475Y0588954*
X141169Y0589062*
X141189Y0589186*
X1412075Y0589327*
X1412246Y0589485*
Y0585285*
G37*
G36*
X1664937Y0968084D02*
X1664569Y0968079D01*
X1663894Y0968015*
X1663587Y0967956*
X16633Y0967879*
X1663034Y0967785*
X1662788Y0967672*
X1662562Y0967542*
X1662356Y0967393*
X1662171Y0967227*
X166111Y0968288*
X1661276Y0968473*
X1661425Y0968679*
X1661555Y0968904*
X1661668Y0969151*
X1661762Y0969417*
X1661839Y0969704*
X1661898Y0970011*
X1661939Y0970338*
X1661962Y0970686*
X1661967Y0971054*
X1664937Y0968084*
G37*
G36*
X1444688Y040429D02*
X1444894Y0404141D01*
X144512Y0404011*
X1445366Y0403898*
X1445632Y0403804*
X1445919Y0403727*
X1446226Y0403668*
X1446554Y0403627*
X1446901Y0403604*
X1447269Y0403599*
X1444299Y0400629*
X1444294Y0400997*
X144423Y0401672*
X1444171Y0401979*
X1444094Y0402266*
X1444Y0402532*
X1443887Y0402779*
X1443757Y0403004*
X1443609Y040321*
X1443442Y0403395*
X1444503Y0404456*
X1444688Y040429*
G37*
G36*
X1596376Y1207064D02*
X1596361Y1207206D01*
X1596315Y1207334*
X1596238Y1207447*
X1596131Y1207544*
X1595993Y1207626*
X1595825Y1207694*
X1595626Y1207746*
X1595396Y1207784*
X1595136Y1207806*
X1594845Y1207814*
Y1209314*
X1595136Y1209322*
X1595396Y1209344*
X1595626Y1209381*
X1595825Y1209434*
X1595993Y1209501*
X1596131Y1209584*
X1596238Y1209681*
X1596315Y1209794*
X1596361Y1209921*
X1596376Y1210064*
Y1207064*
G37*
G36*
X1590942Y1209921D02*
X1590987Y1209794D01*
X1591061Y1209681*
X1591166Y1209584*
X1591301Y1209501*
X1591466Y1209434*
X1591661Y1209381*
X1591887Y1209344*
X1592141Y1209322*
X1592427Y1209314*
Y1207814*
X1592141Y1207806*
X1591887Y1207784*
X1591661Y1207746*
X1591466Y1207694*
X1591301Y1207626*
X1591166Y1207544*
X1591061Y1207447*
X1590987Y1207334*
X1590942Y1207206*
X1590926Y1207064*
Y1210064*
X1590942Y1209921*
G37*
G36*
X1496404Y0403401D02*
X1496468Y0402726D01*
X1496527Y0402419*
X1496604Y0402132*
X1496698Y0401866*
X1496811Y0401619*
X1496941Y0401394*
X149709Y0401188*
X1497256Y0401003*
X1496195Y0399942*
X149601Y0400108*
X1495804Y0400257*
X1495579Y0400387*
X1495332Y04005*
X1495066Y0400594*
X1494779Y0400671*
X1494472Y040073*
X1494145Y0400771*
X1493797Y0400794*
X1493429Y0400799*
X1496399Y0403769*
X1496404Y0403401*
G37*
G36*
X1618572Y1220268D02*
X1618617Y1220141D01*
X1618691Y1220029*
X1618796Y1219931*
X1618931Y1219848*
X1619096Y1219781*
X1619291Y1219729*
X1619517Y1219691*
X1619771Y1219668*
X1620057Y1219661*
Y1218161*
X1619771Y1218154*
X1619517Y1218131*
X1619291Y1218093*
X1619096Y1218041*
X1618931Y1217973*
X1618796Y1217891*
X1618691Y1217793*
X1618617Y1217681*
X1618572Y1217553*
X1618556Y1217411*
Y1220411*
X1618572Y1220268*
G37*
G36*
X132468Y0543332D02*
X1324865Y0543191D01*
X1325065Y0543067*
X132528Y0542959*
X132551Y0542867*
X1325755Y0542793*
X1326015Y0542735*
X132629Y0542693*
X132658Y0542668*
X1326885Y054266*
Y054012*
X132658Y0540112*
X132629Y0540087*
X1326015Y0540045*
X1325755Y0539987*
X132551Y0539912*
X132528Y0539821*
X1325065Y0539713*
X1324865Y0539589*
X132468Y0539448*
X1324509Y053929*
Y054349*
X132468Y0543332*
G37*
G36*
X1321945Y0396097D02*
X132197Y0395807D01*
X1322012Y0395532*
X132207Y0395272*
X1322145Y0395027*
X1322236Y0394797*
X1322344Y0394582*
X1322468Y0394382*
X1322609Y0394197*
X1322767Y0394026*
X1318567*
X1318725Y0394197*
X1318866Y0394382*
X131899Y0394582*
X1319098Y0394797*
X131919Y0395027*
X1319264Y0395272*
X1319322Y0395532*
X1319364Y0395807*
X1319389Y0396097*
X1319397Y0396402*
X1321937*
X1321945Y0396097*
G37*
G36*
X1542625Y1207041D02*
X154261Y1207184D01*
X1542564Y1207311*
X1542487Y1207423*
X154238Y1207521*
X1542242Y1207604*
X1542074Y1207671*
X1541875Y1207724*
X1541645Y1207761*
X1541385Y1207784*
X1541094Y1207791*
Y1209291*
X1541385Y1209298*
X1541645Y1209321*
X1541875Y1209359*
X1542074Y1209411*
X1542242Y1209479*
X154238Y1209561*
X1542487Y1209659*
X1542564Y1209771*
X154261Y1209899*
X1542625Y1210041*
Y1207041*
G37*
G36*
X1561757Y1204828D02*
X1561629Y1204782D01*
X1561516Y1204705*
X1561419Y1204598*
X1561336Y120446*
X1561269Y1204292*
X1561216Y1204093*
X1561179Y1203864*
X1561157Y1203603*
X1561149Y1203313*
X1559649*
X1559641Y1203603*
X1559619Y1203864*
X1559582Y1204093*
X1559529Y1204292*
X1559461Y120446*
X1559379Y1204598*
X1559282Y1204705*
X1559169Y1204782*
X1559041Y1204828*
X1558899Y1204843*
X1561899*
X1561757Y1204828*
G37*
G36*
X1576215Y1204766D02*
X1576087Y120472D01*
X1575974Y1204643*
X1575877Y1204536*
X1575794Y1204398*
X1575727Y120423*
X1575675Y1204031*
X1575637Y1203801*
X1575615Y1203541*
X1575607Y120325*
X1574107*
X1574099Y1203541*
X1574077Y1203801*
X157404Y1204031*
X1573987Y120423*
X1573919Y1204398*
X1573837Y1204536*
X157374Y1204643*
X1573627Y120472*
X15735Y1204766*
X1573357Y1204781*
X1576357*
X1576215Y1204766*
G37*
G36*
X1601556Y1204747D02*
X1601429Y1204701D01*
X1601316Y1204624*
X1601219Y1204517*
X1601137Y1204379*
X1601069Y1204211*
X1601016Y1204012*
X1600979Y1203782*
X1600956Y1203522*
X1600949Y1203231*
X1599449*
X1599441Y1203522*
X1599419Y1203782*
X1599381Y1204012*
X1599329Y1204211*
X1599262Y1204379*
X1599179Y1204517*
X1599081Y1204624*
X1598969Y1204701*
X1598841Y1204747*
X1598699Y1204762*
X1601699*
X1601556Y1204747*
G37*
G36*
X1654358Y1204688D02*
X1654112Y1204931D01*
X1653637Y1205341*
X1653409Y1205508*
X1653186Y1205649*
X165297Y1205764*
X1652759Y1205854*
X1652554Y1205918*
X1652356Y1205956*
X1652163Y1205969*
X1652167Y1206969*
X1652359Y1206982*
X1652557Y120702*
X1652762Y1207084*
X1652974Y1207173*
X1653191Y1207288*
X1653415Y1207428*
X1653644Y1207594*
X1653881Y1207785*
X1654372Y1208244*
X1654358Y1204688*
G37*
G36*
X1537049Y1209899D02*
X1537094Y1209771D01*
X1537168Y1209659*
X1537273Y1209561*
X1537409Y1209479*
X1537573Y1209411*
X1537768Y1209359*
X1537994Y1209321*
X1538249Y1209298*
X1538534Y1209291*
Y1207791*
X1538249Y1207784*
X1537994Y1207761*
X1537768Y1207724*
X1537573Y1207671*
X1537409Y1207604*
X1537273Y1207521*
X1537168Y1207423*
X1537094Y1207311*
X1537049Y1207184*
X1537033Y1207041*
Y1210041*
X1537049Y1209899*
G37*
G36*
X1618571Y1209733D02*
X1618615Y1209612D01*
X1618688Y1209507*
X1618789Y1209415*
X161892Y1209337*
X1619081Y1209274*
X161927Y1209224*
X1619488Y1209189*
X1619735Y1209168*
X1620012Y1209161*
Y1207661*
X1619735Y1207654*
X1619488Y1207633*
X161927Y1207597*
X1619081Y1207548*
X161892Y1207485*
X1618789Y1207407*
X1618688Y1207315*
X1618615Y1207209*
X1618571Y120709*
X1618556Y1206955*
Y1209866*
X1618571Y1209733*
G37*
G36*
X1610648Y1206911D02*
X1610633Y1207054D01*
X1610587Y1207181*
X161051Y1207293*
X1610403Y1207391*
X1610265Y1207474*
X1610097Y1207541*
X1609898Y1207594*
X1609668Y1207631*
X1609408Y1207653*
X1609117Y1207661*
Y1209161*
X1609408Y1209168*
X1609668Y1209191*
X1609898Y1209229*
X1610097Y1209281*
X1610265Y1209349*
X1610403Y1209431*
X161051Y1209528*
X1610587Y1209641*
X1610633Y1209769*
X1610648Y1209911*
Y1206911*
G37*
G36*
X1537049Y1220299D02*
X1537094Y1220171D01*
X1537168Y1220059*
X1537273Y1219962*
X1537409Y1219879*
X1537573Y1219811*
X1537768Y1219759*
X1537994Y1219721*
X1538249Y1219698*
X1538534Y1219691*
Y1218191*
X1538249Y1218184*
X1537994Y1218161*
X1537768Y1218123*
X1537573Y1218071*
X1537409Y1218004*
X1537273Y1217921*
X1537168Y1217823*
X1537094Y1217711*
X1537049Y1217584*
X1537033Y1217441*
Y1220441*
X1537049Y1220299*
G37*
G36*
X1560877Y1223723D02*
X1560913Y1223327D01*
X1560945Y1223166*
X1560986Y122303*
X1561036Y1222919*
X1561096Y1222832*
X1561164Y1222771*
X1561242Y1222734*
X1561328Y1222721*
X1558916*
X1559002Y1222734*
X155908Y1222771*
X1559148Y1222832*
X1559208Y1222919*
X1559258Y122303*
X1559299Y1223166*
X1559331Y1223327*
X1559354Y1223513*
X1559367Y1223723*
X1559372Y1223958*
X1560872*
X1560877Y1223723*
G37*
G36*
X1615344Y122384D02*
X1615367Y122358D01*
X1615404Y122335*
X1615457Y1223151*
X1615525Y1222983*
X1615607Y1222845*
X1615705Y1222738*
X1615817Y1222661*
X1615944Y1222615*
X1616087Y12226*
X1613087*
X1613229Y1222615*
X1613357Y1222661*
X1613469Y1222738*
X1613567Y1222845*
X161365Y1222983*
X1613717Y1223151*
X1613769Y122335*
X1613807Y122358*
X161383Y122384*
X1613837Y122413*
X1615337*
X1615344Y122384*
G37*
G36*
X162258Y1214561D02*
X1622569Y1214768D01*
X1622536Y1214976*
X1622482Y1215185*
X1622405Y1215395*
X1622307Y1215607*
X1622187Y1215819*
X1622045Y1216033*
X1621882Y1216248*
X1621696Y1216465*
X1621489Y1216683*
Y1218804*
X1621696Y1218607*
X1621882Y1218455*
X1622045Y1218346*
X1622187Y121828*
X1622307Y1218258*
X1622405Y121828*
X1622482Y1218346*
X1622536Y1218455*
X1622569Y1218607*
X162258Y1218804*
Y1214561*
G37*
G36*
X1412423Y0549096D02*
X1412463Y0548846D01*
X141253Y0548594*
X1412625Y054834*
X1412746Y0548085*
X1412895Y0547827*
X141307Y0547569*
X1413273Y0547308*
X1413503Y0547046*
X1413759Y0546782*
X1409559*
X1409815Y0547046*
X1410248Y0547569*
X1410423Y0547827*
X1410572Y0548085*
X1410693Y054834*
X1410788Y0548594*
X1410855Y0548846*
X1410895Y0549096*
X1410909Y0549345*
X1412409*
X1412423Y0549096*
G37*
G36*
X1524067Y1231199D02*
X1526015D01*
Y1200084*
X1532053*
X1532805Y1199331*
X1533715Y1198724*
X1534788Y119851*
X1537719*
X1553595Y1182634*
Y1175681*
X1552613Y1174875*
X1552399Y1174918*
X1551935Y1174826*
X1550953Y1175631*
Y1177008*
X1550739Y1178081*
X1550132Y1178991*
X1539509Y1189614*
X1538599Y1190221*
X1537526Y1190435*
X1529877*
X1528804Y1190221*
X1527894Y1189614*
X1516298Y1178017*
X1469013*
X1468671Y1178842*
X1468644Y1178939*
X1468621Y1179287*
X148225Y1192915*
X1482857Y1193825*
X1483071Y1194898*
Y1198289*
X1485279*
Y1207329*
Y1216369*
X1481759*
Y1215829*
X1456299*
Y1200903*
X145629Y120086*
X1456299Y1200816*
Y1198829*
X1457198*
X1457201Y1197559*
X1452946Y1193304*
X1270248*
X1268972Y119305*
X126789Y1192327*
X1210341Y1134779*
X1209619Y1133697*
X1209365Y1132421*
Y0596437*
X1209619Y0595161*
X1210341Y059408*
X1215765Y0588656*
X1215968Y0588397*
X1216039Y058829*
X1216107Y0588176*
X121616Y0588074*
X1216199Y0587985*
X1216227Y058791*
X1216265Y0587772*
X1216316Y0587674*
X1216433Y0587084*
X1217538Y058543*
X1219192Y0584325*
X1221143Y0583937*
X1223094Y0584325*
X1224748Y058543*
X1225853Y0587084*
X12259Y058732*
X1227177Y0587751*
X1227951Y0587123*
Y0469996*
X1228165Y0468923*
X1228772Y0468013*
X1300176Y039661*
X1299257Y0395235*
X1298869Y0393284*
X1299257Y0391333*
X1300362Y0389679*
X1302016Y0388574*
X1303967Y0388186*
X1305918Y0388574*
X1307572Y0389679*
X1308677Y0391333*
X1309065Y0393284*
X1308677Y0395235*
X1307572Y0396889*
X1306624Y0397522*
X1306557Y0397857*
X130595Y0398767*
X1305605Y0399111*
X1306131Y0400381*
X1308747*
X1308793Y0400369*
X1308872Y0400339*
X1308974Y0400291*
X1309097Y040022*
X1309214Y040014*
X1309599Y0399822*
X1309606Y0399816*
X1309763Y039958*
X1311417Y0398475*
X1313368Y0398087*
X1315319Y0398475*
X1316063Y0398972*
X1317333Y0398293*
Y0396015*
X1317317Y0395907*
X1317291Y0395793*
X1317263Y0395702*
X1317236Y0395632*
X1317215Y0395591*
X1317062Y0395489*
X1315957Y0393835*
X1315569Y0391884*
X1315957Y0389933*
X1317062Y0388279*
X1318716Y0387174*
X1320667Y0386786*
X1322618Y0387174*
X1324272Y0388279*
X1325377Y0389933*
X1325765Y0391884*
X1325377Y0393835*
X1324272Y0395489*
X1324119Y0395591*
X1324098Y0395632*
X1324071Y0395702*
X1324043Y0395793*
X1324017Y0395907*
X1324001Y0396015*
Y0405384*
X1325006Y0406794*
X1325259Y0406837*
X1335238Y0396858*
X1336148Y0396251*
X1337221Y0396037*
X1400241*
X1401314Y0396251*
X1402224Y0396858*
X1406814Y0401449*
X1406855Y0401473*
X1406932Y0401508*
X1407038Y0401546*
X1407175Y0401582*
X1407315Y0401609*
X1407812Y0401656*
X1407821*
X1408099Y0401601*
X141005Y0401989*
X1411704Y0403094*
X1412809Y0404749*
X1413197Y0406699*
X1412809Y040865*
X1411704Y0410304*
X141005Y0411409*
X1408099Y0411797*
X1406148Y0411409*
X1404494Y0410304*
X1403389Y040865*
X1403001Y0406699*
X1403056Y0406421*
Y0406383*
X140304Y0406148*
X1403015Y0405945*
X1402982Y0405775*
X1402945Y0405638*
X1402908Y0405533*
X1402873Y0405456*
X1402849Y0405414*
X139908Y0401645*
X1338382*
X1325305Y0414722*
X1325791Y0415895*
X1403509*
X1403564Y0415881*
X1403653Y0415849*
X1403764Y0415798*
X1403898Y0415724*
X1404028Y0415639*
X1404381Y0415363*
X1404494Y0415194*
X1406148Y0414089*
X1408099Y0413701*
X141005Y0414089*
X1411704Y0415194*
X1412809Y0416848*
X1413197Y0418799*
X1412809Y0420751*
X1411704Y0422404*
X141005Y0423509*
X1408099Y0423897*
X1406148Y0423509*
X1404494Y0422404*
X140431Y0422128*
X1404207Y0422021*
X1404042Y0421868*
X1403893Y0421746*
X1403761Y0421652*
X1403649Y0421585*
X1403558Y042154*
X1403488Y0421513*
X1403451Y0421503*
X1323474*
X131597Y0429007*
X1316456Y043018*
X1413753*
X1442049Y0401884*
X1442073Y0401842*
X1442108Y0401766*
X1442145Y040166*
X1442182Y0401523*
X1442209Y0401383*
X1442256Y0400886*
Y0400877*
X1442201Y0400599*
X1442589Y0398648*
X1443694Y0396994*
X1445348Y0395889*
X1447299Y0395501*
X144925Y0395889*
X1450904Y0396994*
X1452009Y0398648*
X1452397Y0400599*
X1452043Y040238*
X1452288Y0403072*
X1452597Y040365*
X1477833*
X1488498Y0392985*
X1489579Y0392263*
X1490855Y0392009*
X1560311*
X1560577Y0392062*
X1560588*
X1561864Y0392316*
X1562945Y0393039*
X1563396Y0393713*
X1563724Y0394041*
X161939*
X1620666Y0394295*
X1621748Y0395018*
X1629425Y0402695*
X1630147Y0403776*
X1630401Y0405052*
Y0513903*
X1644925Y0528427*
X1645647Y0529508*
X1645901Y0530784*
X1645851Y0531036*
Y0538903*
X1645867Y0539011*
X1645893Y0539125*
X164592Y0539216*
X1645948Y0539286*
X1645969Y0539327*
X1646122Y0539429*
X1647227Y0541083*
X1647615Y0543034*
X1647227Y0544985*
X1646122Y0546639*
X1645969Y0546741*
X1645948Y0546782*
X164592Y0546852*
X1645893Y0546943*
X1645867Y0547057*
X1645851Y0547165*
Y0557873*
X1652925Y0564946*
X1653647Y0566028*
X1653901Y0567304*
Y0646153*
X1653917Y0646261*
X1653943Y0646375*
X1653971Y0646466*
X1653998Y0646536*
X1654019Y0646577*
X1654172Y0646679*
X1655277Y0648333*
X1655665Y0650284*
X1655277Y0652235*
X1654172Y0653889*
X1652518Y0654994*
X1650567Y0655382*
X1648941Y0655059*
X1647671Y0655774*
Y0781673*
X165375Y0787752*
X1654357Y0788662*
X1654571Y0789735*
Y0927423*
X1663782Y0936634*
X1663823Y0936658*
X1663901Y0936693*
X1664006Y0936731*
X1664143Y0936767*
X1664283Y0936794*
X166478Y0936841*
X1664789*
X1665067Y0936786*
X1667018Y0937174*
X1668672Y0938279*
X1669777Y0939933*
X1670165Y0941884*
X1669777Y0943835*
X1668672Y0945489*
X1667826Y0946054*
Y0947581*
X1668572Y0948079*
X1669677Y0949733*
X1670065Y0951684*
X1669677Y0953635*
X1668572Y0955289*
X1667851Y095577*
Y0957298*
X1668572Y0957779*
X1669677Y0959433*
X1670065Y0961384*
X1669677Y0963335*
X1668572Y0964989*
X1667851Y096547*
Y0966998*
X1668572Y0967479*
X1669677Y0969133*
X1670065Y0971084*
X1669677Y0973035*
X1668572Y0974689*
X1666918Y0975794*
X1664967Y0976182*
X1663016Y0975794*
X1661362Y0974689*
X1660257Y0973035*
X1659869Y0971084*
X1659924Y0970806*
Y0970768*
X1659908Y0970534*
X1659883Y097033*
X165985Y097016*
X1659813Y0970023*
X1659776Y0969918*
X1659741Y0969841*
X1659717Y0969799*
X1647984Y0958067*
X1647783Y0957765*
X1639284Y0949267*
X1638677Y0948357*
X1638463Y0947284*
Y0795245*
X1632334Y0789117*
X1631727Y0788207*
X1631513Y0787134*
Y0643553*
X1631563Y0643302*
Y0573603*
X1596584Y0538624*
X1595977Y0537714*
X1595763Y0536641*
Y0456995*
X1579556Y0440788*
X1571395*
X1570909Y0441961*
X157505Y0446101*
X1575657Y0447011*
X1575871Y0448084*
Y0456563*
X1575883Y0456609*
X1575913Y0456688*
X1575961Y045679*
X1576032Y0456913*
X1576112Y045703*
X157643Y0457415*
X1576436Y0457422*
X1576672Y0457579*
X1577777Y0459233*
X1578165Y0461184*
X1577777Y0463135*
X1576672Y0464789*
X1576438Y0464945*
X1576415Y0464969*
X1576264Y0465144*
X1576141Y0465304*
X1576046Y0465448*
X1575975Y0465575*
X1575925Y0465685*
X1575892Y0465778*
X1575872Y0465855*
X1575871Y0465863*
Y0486561*
X1575883Y0486607*
X1575913Y0486686*
X1575961Y0486788*
X1576032Y0486911*
X1576112Y0487028*
X157643Y0487413*
X1576436Y048742*
X1576672Y0487577*
X1577777Y0489231*
X1578165Y0491182*
X1577777Y0493133*
X1576672Y0494787*
X1575018Y0495892*
X1573067Y049628*
X1571117Y0495892*
X1569462Y0494787*
X1568357Y0493133*
X1567969Y0491182*
X1568357Y0489231*
X1569462Y0487577*
X1569698Y048742*
X1569724Y0487392*
X156988Y0487215*
X1570005Y0487054*
X1570102Y0486911*
X1570173Y0486788*
X1570221Y0486686*
X1570251Y0486607*
X1570263Y0486561*
Y0465863*
X1570262Y0465855*
X1570242Y0465778*
X1570209Y0465685*
X1570159Y0465575*
X1570088Y0465448*
X1569993Y0465304*
X156987Y0465144*
X156972Y0464969*
X1569696Y0464945*
X1569462Y0464789*
X1568357Y0463135*
X1567969Y0461184*
X1568357Y0459233*
X1569462Y0457579*
X1569698Y0457422*
X1569724Y0457394*
X156988Y0457217*
X1570005Y0457056*
X1570102Y0456913*
X1570173Y045679*
X1570221Y0456688*
X1570251Y0456609*
X1570263Y0456563*
Y0451594*
X1568993Y0451209*
X1568472Y0451989*
X1566818Y0453094*
X1564867Y0453482*
X1564687Y0453446*
X1564643Y0453461*
X1564574Y045349*
X156449Y0453535*
X1564391Y0453598*
X1564303Y0453663*
X1553125Y0464841*
X1516256Y050171*
X1516191Y0501803*
X1516175Y0501834*
X1516191Y0501865*
X1516256Y0501958*
X1564202Y0549904*
X1582589*
X1582697Y0549888*
X1582811Y0549862*
X1582902Y0549834*
X1582972Y0549807*
X1583013Y0549786*
X1583115Y0549633*
X1584769Y0548528*
X158672Y054814*
X1588671Y0548528*
X1590325Y0549633*
X159143Y0551287*
X1591818Y0553238*
X159143Y0555189*
X1590325Y0556843*
X1588671Y0557948*
X158672Y0558336*
X1584769Y0557948*
X1583115Y0556843*
X1583013Y055669*
X1582972Y0556669*
X1582902Y0556642*
X1582811Y0556614*
X1582697Y0556588*
X1582589Y0556572*
X1564816*
X1564537Y0556758*
X1563261Y0557012*
X1561985Y0556758*
X1560904Y0556035*
X1512264Y0507396*
X151057*
X1477176Y054079*
Y0559746*
X1477192Y0559854*
X1477218Y0559968*
X1477246Y0560059*
X1477273Y0560129*
X1477294Y056017*
X1477447Y0560272*
X1478552Y0561926*
X1478563Y0561981*
X1479807Y0562004*
X147986Y0561994*
X1480958Y0560351*
X1482612Y0559246*
X1484563Y0558858*
X1486514Y0559246*
X1488168Y0560351*
X1489273Y0562005*
X1489661Y0563956*
X1489273Y0565907*
X1488168Y0567561*
X1486514Y0568666*
X1484563Y0569054*
X1484285Y0568999*
X1484247*
X1484012Y0569015*
X1483809Y056904*
X1483639Y0569073*
X1483532Y0569102*
X1483463Y0569168*
X1483053Y0569785*
X1483651Y057103*
X1592748*
X1596571Y0567206*
X1597481Y0566599*
X1598554Y0566385*
X1606763*
X1607836Y0566599*
X1608746Y0567206*
X1612431Y0570892*
X1612472Y0570916*
X161255Y0570951*
X1612655Y0570988*
X1612792Y0571025*
X1612932Y0571052*
X1613429Y0571099*
X1613438*
X1613716Y0571044*
X1615667Y0571432*
X1617321Y0572537*
X1618426Y0574191*
X1618814Y0576142*
X1618426Y0578093*
X1617963Y0578786*
X1618878Y0579702*
X1620024Y0578936*
X1621975Y0578548*
X1623926Y0578936*
X162558Y0580041*
X1626685Y0581695*
X1627073Y0583646*
X1626685Y0585597*
X162558Y0587251*
X1623926Y0588356*
X1621975Y0588744*
X1620024Y0588356*
X161837Y0587251*
X1618248Y0587068*
X1618095Y0586941*
X1617922Y0586813*
X1617769Y0586714*
X1617636Y058664*
X1617525Y0586589*
X1617437Y0586557*
X1617383Y0586543*
X1438295*
X1437222Y0586329*
X1436312Y0585722*
X1409676Y0559086*
X1409069Y0558176*
X1408855Y0557103*
Y0549261*
X1408843Y0549215*
X1408813Y0549136*
X1408765Y0549034*
X1408694Y0548911*
X1408614Y0548794*
X1408296Y0548409*
X140829Y0548402*
X1408054Y0548245*
X1406949Y0546591*
X1406561Y054464*
X1406949Y0542689*
X1408054Y0541035*
X1409462Y0540095*
X140925Y0538825*
X1373404*
X1372331Y0538611*
X1371421Y0538004*
X1327785Y0494367*
X1327177Y0493457*
X1326963Y0492384*
Y0463405*
X1326951Y0463359*
X1326921Y0463279*
X1326873Y0463178*
X1326802Y0463055*
X1326722Y0462938*
X1326404Y0462553*
X1326398Y0462546*
X1326162Y0462389*
X1325057Y0460735*
X1324669Y0458784*
X1325057Y0456833*
X1326162Y0455179*
X1327816Y0454074*
X1329767Y0453686*
X1331718Y0454074*
X1333373Y0455179*
X1334477Y0456833*
X1334865Y0458784*
X1334477Y0460735*
X1333373Y0462389*
X1333136Y0462546*
X133311Y0462574*
X1332954Y0462751*
X1332829Y0462912*
X1332732Y0463055*
X1332661Y0463178*
X1332613Y0463279*
X1332583Y0463359*
X1332571Y0463405*
Y0491223*
X1374565Y0533217*
X1415309*
X1416382Y0533431*
X1417292Y0534038*
X1427661Y0544408*
X1427679Y054442*
X1436778Y0553519*
X1436863Y0553576*
X1450817Y056753*
X1468742*
X1469421Y056626*
X1469132Y0565828*
X1468744Y0563877*
X1469132Y0561926*
X1470237Y0560272*
X147039Y056017*
X1470411Y0560129*
X1470438Y0560059*
X1470466Y0559968*
X1470492Y0559854*
X1470508Y0559746*
Y0539409*
X1470762Y0538133*
X1471484Y0537051*
X1506578Y0501958*
X1506643Y0501865*
X1506659Y0501834*
X1506643Y0501803*
X1506578Y050171*
X1481286Y0476418*
X1431684*
X1430408Y0476164*
X1429326Y0475442*
X1410548Y0456663*
X141046Y0456598*
X141036Y0456535*
X1410277Y045649*
X1410208Y045646*
X1410164Y0456446*
X1409984Y0456482*
X1408033Y0456094*
X1406379Y0454989*
X1406277Y0454836*
X1406236Y0454815*
X1406166Y0454788*
X1406075Y045476*
X1405961Y0454734*
X1405853Y0454718*
X1371298*
X137119Y0454734*
X1371076Y045476*
X1370985Y0454788*
X1370915Y0454815*
X1370874Y0454836*
X1370772Y0454989*
X1370619Y0455091*
X1370598Y0455132*
X1370571Y0455202*
X1370543Y0455293*
X1370517Y0455407*
X1370501Y0455515*
Y0496024*
X13903Y0515823*
X1390388Y0515888*
X1390487Y0515951*
X1390571Y0515996*
X139064Y0516025*
X1390684Y051604*
X1390864Y0516004*
X1392815Y0516392*
X1394469Y0517497*
X1395574Y0519151*
X1395962Y0521102*
X1395574Y0523053*
X1394624Y0524475*
X1395027Y0525745*
X1407459*
X1421137Y0512067*
X1421158Y051203*
X142119Y0511958*
X1421225Y0511858*
X1421258Y0511728*
X1421287Y0511564*
X1421309Y0511368*
X142132Y0511139*
X1421319Y0511034*
X1421258Y0510726*
X1421646Y0508775*
X1422751Y0507121*
X1424405Y0506016*
X1426356Y0505628*
X1428307Y0506016*
X1429961Y0507121*
X1431066Y0508775*
X1431454Y0510726*
X1431066Y0512677*
X1429961Y0514331*
X1428307Y0515436*
X1426356Y0515824*
X1426117Y0515776*
X1425896Y0515795*
X1425687Y0515825*
X1425511Y0515861*
X1425367Y0515901*
X1425256Y0515941*
X1425174Y051598*
X1425128Y0516006*
X1410603Y0530532*
X1409693Y0531139*
X140862Y0531353*
X1382432*
X1381359Y0531139*
X1380449Y0530532*
X1348352Y0498434*
X134831Y049841*
X1348234Y0498375*
X1348128Y0498337*
X1347991Y0498301*
X1347851Y0498274*
X1347354Y0498227*
X1347345*
X1347067Y0498282*
X1345116Y0497894*
X1343462Y0496789*
X1342357Y0495135*
X1341969Y0493184*
X1342357Y0491233*
X1343462Y0489579*
X1345116Y0488474*
X1347067Y0488086*
X1349018Y0488474*
X1350672Y0489579*
X1351777Y0491233*
X1352165Y0493184*
X135211Y0493462*
Y04935*
X1352126Y0493735*
X1352151Y0493938*
X1352184Y0494108*
X1352221Y0494245*
X1352258Y049435*
X1352293Y0494427*
X1352317Y0494469*
X1383593Y0525745*
X1386701*
X1387104Y0524475*
X1386154Y0523053*
X1385766Y0521102*
X1385802Y0520922*
X1385788Y0520878*
X1385758Y0520809*
X1385713Y0520725*
X138565Y0520626*
X1385585Y0520538*
X1364809Y0499762*
X1364087Y0498681*
X1363833Y0497405*
Y0455515*
X1363817Y0455407*
X1363791Y0455293*
X1363763Y0455202*
X1363736Y0455132*
X1363715Y0455091*
X1363562Y0454989*
X1362457Y0453335*
X1362069Y0451384*
X1362457Y0449433*
X1363562Y0447779*
X1365216Y0446674*
X1367167Y0446286*
X1369118Y0446674*
X1369453Y0446898*
X1369469Y0446891*
X1370482Y0446058*
X1370169Y0444484*
X1370557Y0442533*
X1370821Y0442138*
X1370222Y0441018*
X1326342*
X1311336Y0456024*
X1311271Y0456112*
X1311208Y0456211*
X1311164Y0456295*
X1311134Y0456363*
X1311119Y0456408*
X1311156Y0456592*
X1310768Y0458543*
X1309663Y0460197*
X1309431Y0460352*
X1309417Y0460373*
X1309394Y0460417*
X130937Y0460478*
X1309342Y0460561*
X1309317Y0460669*
X1309301Y0460774*
Y0532399*
X1309047Y0533675*
X1308325Y0534757*
X128339Y0559691*
X1282308Y0560414*
X1281032Y0560668*
X1271971*
X1271863Y0560684*
X1271749Y056071*
X1271658Y0560738*
X1271588Y0560765*
X1271547Y0560786*
X1271445Y0560939*
X1269791Y0562044*
X1267841Y0562432*
X1267354Y0562335*
X1266729Y0563506*
X1268988Y0565765*
X1367667*
X1368943Y0566019*
X1370024Y0566742*
X1393543Y059026*
X1394787Y0590132*
X1395228Y0589036*
X1391437Y0585245*
X1391356Y0585191*
X1350889Y0544724*
X1326498*
X132639Y054474*
X1326276Y0544766*
X1326185Y0544794*
X1326115Y0544821*
X1326074Y0544842*
X1325972Y0544995*
X1324318Y05461*
X1322367Y0546488*
X1320416Y05461*
X1318762Y0544995*
X1317657Y0543341*
X1317269Y054139*
X1317657Y0539439*
X1318762Y0537785*
X1320416Y053668*
X1322367Y0536292*
X1324318Y053668*
X1325972Y0537785*
X1326074Y0537938*
X1326115Y0537959*
X1326185Y0537986*
X1326276Y0538014*
X132639Y053804*
X1326498Y0538056*
X135227*
X1353546Y053831*
X1354627Y0539033*
X1396003Y0580408*
X1396085Y0580462*
X1399673Y0584051*
X1410257*
X1410365Y0584035*
X1410479Y0584009*
X141057Y0583981*
X141064Y0583954*
X1410681Y0583933*
X1410783Y058378*
X1412437Y0582676*
X1414388Y0582287*
X1416339Y0582676*
X1417993Y058378*
X1419098Y0585434*
X1419486Y0587385*
X1419157Y0589039*
X141986Y0590309*
X1605077*
X1606353Y0590563*
X1607434Y0591286*
X1626993Y0610843*
X1627715Y0611925*
X1627969Y0613201*
Y0623475*
X162824Y0623656*
X1629345Y062531*
X1629733Y0627261*
X1629345Y0629212*
X162824Y0630866*
X1626953Y0631726*
X1626596Y0633165*
X1626724Y0633294*
X1627447Y0634375*
X1627701Y0635651*
Y0769753*
X1627717Y0769861*
X1627743Y0769975*
X1627771Y0770066*
X1627798Y0770136*
X1627819Y0770177*
X1627972Y0770279*
X1629077Y0771933*
X1629465Y0773884*
X1629077Y0775835*
X1627972Y0777489*
X1626318Y0778594*
X1624367Y0778982*
X1622416Y0778594*
X1620762Y0777489*
X1619657Y0775835*
X1619269Y0773884*
X1619657Y0771933*
X1620762Y0770279*
X1620915Y0770177*
X1620936Y0770136*
X1620963Y0770066*
X1620991Y0769975*
X1621017Y0769861*
X1621033Y0769753*
Y0637032*
X162031Y0636309*
X161968Y0635889*
X1616007Y0632216*
X1615285Y0631134*
X1615031Y0629858*
Y0624664*
X1615285Y0623388*
X1616007Y0622306*
X1616761Y0621553*
Y0616463*
X1601816Y0601517*
X1418926*
X1418866Y0601529*
X1378786*
X137751Y0601275*
X1376428Y0600553*
X1361887Y0586011*
X1361797Y0585944*
X1361694Y0585878*
X1361605Y0585829*
X136153Y0585796*
X1361509Y0585789*
X1361403Y058581*
X1359452Y0585422*
X1357798Y0584317*
X1356693Y0582663*
X1356305Y0580712*
X1356693Y0578761*
X1357798Y0577107*
X1359452Y0576002*
X1361403Y0575614*
X1363354Y0576002*
X1365008Y0577107*
X1366113Y0578761*
X1366501Y0580712*
X1366451Y0580965*
X1366454Y0580982*
X136647Y0581031*
X1366496Y0581094*
X1366537Y0581173*
X1366597Y0581268*
X136666Y0581354*
X1380167Y0594861*
X1387055*
X1387541Y0593688*
X1366286Y0572433*
X1267607*
X1266331Y0572179*
X1265249Y0571456*
X1257918Y0564126*
X1257196Y0563044*
X1256942Y0561768*
Y0527775*
X1257196Y0526499*
X1257918Y0525418*
X1263699Y0519637*
X1263763Y051955*
X1263824Y0519453*
X1263867Y0519372*
X1263895Y0519306*
X1263912Y0519254*
Y0519252*
X1263869Y0519034*
X1264257Y0517083*
X1265362Y0515429*
X1267016Y0514324*
X1268792Y051397*
X1269127Y0513396*
X1269331Y0512714*
X1266034Y0509417*
X1265428Y0508508*
X1265213Y0507434*
Y0468045*
X1265428Y0466972*
X1266034Y0466062*
X1276977Y0455119*
X1276559Y0453741*
X1275316Y0453494*
X1273662Y0452389*
X1272557Y0450735*
X1272411Y0450001*
X1271033Y0449583*
X1240559Y0480057*
Y0591627*
X1240345Y05927*
X1239738Y059361*
X1229194Y0604153*
Y1124415*
X1280688Y1175909*
X1324585*
X1325071Y1174736*
X1306134Y1155799*
X1306092Y1155775*
X1306016Y115574*
X130591Y1155703*
X1305773Y1155666*
X1305633Y1155639*
X1305136Y1155592*
X1305127*
X1304849Y1155647*
X1302898Y1155259*
X1301244Y1154154*
X1300139Y11525*
X1299751Y1150549*
X1300139Y1148598*
X1301244Y1146944*
X1302898Y1145839*
X1304849Y1145451*
X13068Y1145839*
X1308454Y1146944*
X1309559Y1148598*
X1309947Y1150549*
X1309892Y1150827*
Y1150865*
X1309908Y11511*
X1309933Y1151303*
X1309966Y1151473*
X1310003Y115161*
X131004Y1151715*
X1310075Y1151793*
X1310099Y1151834*
X1330674Y1172409*
X1370185*
X1370671Y1171236*
X1356484Y1157049*
X1356442Y1157025*
X1356365Y115699*
X135626Y1156953*
X1356123Y1156916*
X1355983Y1156889*
X1355486Y1156843*
X1355477*
X1355199Y1156897*
X1353248Y1156509*
X1351594Y1155404*
X1350489Y115375*
X1350101Y1151799*
X1350489Y1149848*
X1351594Y1148194*
X1353248Y1147089*
X1355199Y1146701*
X135715Y1147089*
X1358804Y1148194*
X1359909Y1149848*
X1360297Y1151799*
X1360242Y1152077*
Y1152115*
X1360258Y115235*
X1360283Y1152553*
X1360316Y1152723*
X1360353Y115286*
X136039Y1152965*
X1360425Y1153043*
X1360449Y1153084*
X1376272Y1168908*
X1529431*
X1529445Y1168899*
X1529483Y116887*
X1529539Y1168816*
X1529613Y1168731*
X1529702Y116861*
X1529837Y1168391*
X1529966Y1168252*
X1530573Y1167343*
X1532227Y1166238*
X1534178Y116585*
X1536129Y1166238*
X1536785Y1166677*
X1538055Y1165998*
Y1154059*
X1538269Y1152986*
X1538876Y1152076*
X1539849Y1151104*
X1539872Y1151064*
X1539906Y1150989*
X1539943Y1150885*
X1539978Y115075*
X154001Y1150582*
X1540034Y1150382*
X1540048Y1150149*
Y1150089*
X1539991Y1149801*
X1540379Y114785*
X1541484Y1146196*
X1543138Y1145091*
X1545089Y1144703*
X154704Y1145091*
X1548694Y1146196*
X1549799Y114785*
X1550187Y1149801*
X1549799Y1151752*
X1548694Y1153406*
X154704Y1154511*
X1545089Y1154899*
X1544822Y1154846*
X1544804*
X1544567Y1154863*
X1544362Y115489*
X154419Y1154924*
X1544051Y1154961*
X1543944Y1155*
X1543865Y1155036*
X1543822Y1155061*
X1543663Y115522*
Y1174041*
X1543449Y1175114*
X1542842Y1176024*
X1539409Y1179456*
X15394Y1179996*
X1540503Y1180465*
X1540754Y1180438*
X1545345Y1175847*
Y1168799*
X1545373Y1168659*
X1545359Y1168517*
X1545479Y1168127*
X1545559Y1167726*
X1545638Y1167607*
X154568Y1167471*
X1545939Y1167156*
X1546166Y1166816*
X1546285Y1166737*
X1546376Y1166627*
X1548784Y1164661*
X1548593Y1164375*
X1548532Y1164069*
X1550184*
X1551033Y1163502*
X1552399Y116323*
Y1162799*
X1553669*
Y1158932*
X1553975Y1158993*
X1555312Y1159886*
X1556106Y1161074*
X1556382Y1161264*
X1557563Y1161543*
X1557943Y1161289*
X1562859Y1156374*
Y1133228*
X1560768Y1131137*
X1405192*
X139096Y1145369*
X139093Y1145421*
X1390888Y1145509*
X1390843Y1145627*
X1390799Y1145778*
X1390764Y1145934*
X1390708Y1146356*
X1390742Y1146526*
X1390354Y1148477*
X1389249Y1150131*
X1387595Y1151236*
X1385644Y1151624*
X1383693Y1151236*
X1382039Y1150131*
X1380934Y1148477*
X1380546Y1146526*
X1380934Y1144575*
X1382039Y1142921*
X1383693Y1141816*
X1385644Y1141428*
X1385984Y1141496*
X1386176Y1141502*
X1386397Y1141496*
X1386586Y1141479*
X1386741Y1141454*
X1386864Y1141424*
X1386956Y1141393*
X1387021Y1141364*
X1387052Y1141347*
X1402048Y112635*
X1402958Y1125743*
X1404031Y1125529*
X1561929*
X1563002Y1125743*
X1563912Y112635*
X1567646Y1130084*
X1568253Y1130994*
X1568467Y1132067*
Y1157535*
X1568253Y1158608*
X1567646Y1159518*
X1564341Y1162822*
X1564827Y1163995*
X1593499*
X1594572Y1164209*
X1595482Y1164816*
X1602182Y1171516*
X1602789Y1172426*
X1603003Y1173499*
Y1200084*
X1620899*
Y1174499*
X1749267*
Y0766184*
X1724367*
Y0618784*
X1723174Y0618599*
X1699999*
Y0609721*
X1697149*
X1697048Y0609737*
X1696947Y0609761*
X1696871Y0609786*
X1696818Y0609809*
X1696783Y0609828*
X169676Y0609844*
X1696743Y0609858*
X1696721Y0609881*
X1696527Y0610172*
X1694873Y0611277*
X1692922Y0611665*
X1690971Y0611277*
X1689317Y0610172*
X1688212Y0608518*
X1687824Y0606567*
X1688212Y0604616*
X1689317Y0602962*
X1690971Y0601857*
X1692922Y0601469*
X1694873Y0601857*
X1696511Y0602951*
X1696591Y0602981*
X1696697Y0603011*
X1696825Y0603037*
X1696939Y0603053*
X1699999*
Y0580403*
X1668967*
X166891Y0580418*
X166882Y058045*
X1668707Y0580502*
X1668571Y0580576*
X1668438Y0580661*
X1668093Y0580929*
X1667988Y0581086*
X1666334Y0582191*
X1664383Y0582579*
X1662432Y0582191*
X1660779Y0581086*
X1659673Y0579432*
X1659285Y0577481*
X1659673Y057553*
X1660779Y0573876*
X1662432Y0572771*
X1664383Y0572383*
X1666334Y0572771*
X1667988Y0573876*
X1668176Y0574158*
X1668293Y0574281*
X1668456Y0574434*
X1668603Y0574555*
X1668733Y0574648*
X1668842Y0574715*
X1668932Y0574759*
X1669001Y0574785*
X1669036Y0574795*
X1699999*
Y0360084*
X1698729*
X1426667*
X1198065Y0359984*
X1197167Y0360882*
Y0605284*
X1196946Y1200286*
X1197844Y1201184*
X1423467*
Y125779*
X1432055*
X1432308Y125652*
X1430618Y125582*
X1428886Y1254491*
X1427558Y125276*
X1426722Y1250743*
X1426437Y1248579*
Y1246599*
X1434799*
X144316*
Y1248579*
X1442876Y1250743*
X144204Y125276*
X1440711Y1254491*
X143898Y125582*
X1437291Y125652*
X1437543Y125779*
X1509555*
X1509808Y125652*
X1508118Y125582*
X1506386Y1254491*
X1505058Y125276*
X1504222Y1250743*
X1503937Y1248579*
Y1246599*
X1512299*
X1520661*
Y1248579*
X1520376Y1250743*
X151954Y125276*
X1518211Y1254491*
X151648Y125582*
X1514791Y125652*
X1515043Y125779*
X1524067*
Y1231199*
G37*
G36*
X1275112Y0546145D02*
X1275176Y054547D01*
X1275235Y0545163*
X1275312Y0544876*
X1275406Y054461*
X1275519Y0544364*
X1275649Y0544138*
X1275798Y0543932*
X1275964Y0543747*
X1274903Y0542686*
X1274718Y0542852*
X1274512Y0543001*
X1274286Y0543131*
X127404Y0543244*
X1273774Y0543338*
X1273487Y0543415*
X127318Y0543474*
X1272852Y0543515*
X1272505Y0543538*
X1272137Y0543543*
X1275107Y0546513*
X1275112Y0546145*
G37*
G36*
X1643795Y0547247D02*
X164382Y0546957D01*
X1643861Y0546682*
X164392Y0546422*
X1643994Y0546177*
X1644086Y0545947*
X1644193Y0545732*
X1644318Y0545532*
X1644459Y0545347*
X1644617Y0545176*
X1640417*
X1640575Y0545347*
X1640716Y0545532*
X164084Y0545732*
X1640948Y0545947*
X1641039Y0546177*
X1641114Y0546422*
X1641172Y0546682*
X1641214Y0546957*
X1641238Y0547247*
X1641247Y0547552*
X1643787*
X1643795Y0547247*
G37*
G36*
X1604299Y1220406D02*
X1604344Y1220282D01*
X1604418Y1220172*
X1604521Y1220077*
X1604655Y1219997*
X1604818Y1219931*
X160501Y121988*
X1605232Y1219843*
X1605484Y1219821*
X1605765Y1219814*
Y1218314*
X1605484Y1218307*
X1605232Y1218285*
X160501Y1218248*
X1604818Y1218197*
X1604655Y1218131*
X1604521Y1218051*
X1604418Y1217956*
X1604344Y1217847*
X1604299Y1217722*
X1604284Y1217584*
Y1220545*
X1604299Y1220406*
G37*
G36*
X1556183Y1217541D02*
X1556168Y1217683D01*
X1556122Y1217811*
X1556045Y1217923*
X1555938Y1218021*
X15558Y1218103*
X1555632Y1218171*
X1555433Y1218223*
X1555203Y1218261*
X1554943Y1218284*
X1554652Y1218291*
Y1219791*
X1554943Y1219798*
X1555203Y1219821*
X1555433Y1219858*
X1555632Y1219911*
X15558Y1219978*
X1555938Y1220061*
X1556045Y1220159*
X1556122Y1220271*
X1556168Y1220398*
X1556183Y1220541*
Y1217541*
G37*
G36*
X1550548Y1220398D02*
X1550593Y1220271D01*
X155067Y1220159*
X1550774Y1220061*
X1550908Y1219978*
X1551074Y1219911*
X1551269Y1219858*
X1551493Y1219821*
X1551749Y1219798*
X1552033Y1219791*
Y1218291*
X1551749Y1218284*
X1551493Y1218261*
X1551269Y1218223*
X1551074Y1218171*
X1550908Y1218103*
X1550774Y1218021*
X155067Y1217923*
X1550593Y1217811*
X1550548Y1217683*
X1550534Y1217541*
Y1220541*
X1550548Y1220398*
G37*
G36*
X1542625Y1217441D02*
X154261Y1217584D01*
X1542564Y1217711*
X1542487Y1217823*
X154238Y1217921*
X1542242Y1218004*
X1542074Y1218071*
X1541875Y1218123*
X1541645Y1218161*
X1541385Y1218184*
X1541094Y1218191*
Y1219691*
X1541385Y1219698*
X1541645Y1219721*
X1541875Y1219759*
X1542074Y1219811*
X1542242Y1219879*
X154238Y1219962*
X1542487Y1220059*
X1542564Y1220171*
X154261Y1220299*
X1542625Y1220441*
Y1217441*
G37*
G36*
X1577537Y1220422D02*
X1577582Y1220294D01*
X1577656Y1220181*
X1577761Y1220084*
X1577896Y1220002*
X1578061Y1219934*
X1578256Y1219882*
X1578483Y1219844*
X1578737Y1219821*
X1579022Y1219814*
Y1218314*
X1578737Y1218306*
X1578483Y1218284*
X1578256Y1218247*
X1578061Y1218194*
X1577896Y1218127*
X1577761Y1218044*
X1577656Y1217946*
X1577582Y1217834*
X1577537Y1217707*
X1577521Y1217564*
Y1220564*
X1577537Y1220422*
G37*
G36*
X1596376Y1217564D02*
X1596361Y1217707D01*
X1596315Y1217834*
X1596238Y1217946*
X1596131Y1218044*
X1595993Y1218127*
X1595825Y1218194*
X1595626Y1218247*
X1595396Y1218284*
X1595136Y1218306*
X1594845Y1218314*
Y1219814*
X1595136Y1219821*
X1595396Y1219844*
X1595626Y1219882*
X1595825Y1219934*
X1595993Y1220002*
X1596131Y1220084*
X1596238Y1220181*
X1596315Y1220294*
X1596361Y1220422*
X1596376Y1220564*
Y1217564*
G37*
G36*
X1590942Y1220422D02*
X1590987Y1220294D01*
X1591061Y1220181*
X1591166Y1220084*
X1591301Y1220002*
X1591466Y1219934*
X1591661Y1219882*
X1591887Y1219844*
X1592141Y1219821*
X1592427Y1219814*
Y1218314*
X1592141Y1218306*
X1591887Y1218284*
X1591661Y1218247*
X1591466Y1218194*
X1591301Y1218127*
X1591166Y1218044*
X1591061Y1217946*
X1590987Y1217834*
X1590942Y1217707*
X1590926Y1217564*
Y1220564*
X1590942Y1220422*
G37*
G36*
X1583018Y1217564D02*
X1583003Y1217707D01*
X1582957Y1217834*
X158288Y1217946*
X1582773Y1218044*
X1582635Y1218127*
X1582467Y1218194*
X1582268Y1218247*
X1582039Y1218284*
X1581778Y1218306*
X1581487Y1218314*
Y1219814*
X1581778Y1219821*
X1582039Y1219844*
X1582268Y1219882*
X1582467Y1219934*
X1582635Y1220002*
X1582773Y1220084*
X158288Y1220181*
X1582957Y1220294*
X1583003Y1220422*
X1583018Y1220564*
Y1217564*
G37*
G36*
X1534809Y1204737D02*
X1534681Y1204691D01*
X1534569Y1204614*
X1534471Y1204507*
X1534388Y1204369*
X1534321Y1204201*
X1534269Y1204002*
X1534231Y1203772*
X1534208Y1203512*
X1534201Y1203222*
X1532701*
X1532694Y1203512*
X1532671Y1203772*
X1532633Y1204002*
X1532581Y1204201*
X1532513Y1204369*
X1532431Y1204507*
X1532333Y1204614*
X1532221Y1204691*
X1532094Y1204737*
X1531951Y1204752*
X1534951*
X1534809Y1204737*
G37*
G36*
X1274845Y0534255D02*
X1274413Y0533732D01*
X1274237Y0533473*
X1274089Y0533216*
X1273967Y0532961*
X1273873Y0532707*
X1273805Y0532455*
X1273764Y0532205*
X1273751Y0531956*
X1272251*
X1272237Y0532205*
X1272197Y0532455*
X127213Y0532707*
X1272035Y0532961*
X1271914Y0533216*
X1271765Y0533473*
X1271589Y0533732*
X1271387Y0533993*
X1271158Y0534255*
X1270901Y0534519*
X1275101*
X1274845Y0534255*
G37*
G36*
X1584579Y0551138D02*
X1584407Y0551296D01*
X1584222Y0551437*
X1584022Y0551561*
X1583807Y0551669*
X1583577Y0551761*
X1583332Y0551835*
X1583072Y0551893*
X1582797Y0551935*
X1582507Y055196*
X1582202Y0551968*
Y0554508*
X1582507Y0554516*
X1582797Y0554541*
X1583072Y0554583*
X1583332Y0554641*
X1583577Y0554715*
X1583807Y0554807*
X1584022Y0554915*
X1584222Y0555039*
X1584407Y055518*
X1584579Y0555338*
Y0551138*
G37*
G36*
X163337Y0549253D02*
X1633338Y0549311D01*
X1633289Y0549363*
X1633223Y0549409*
X1633139Y0549448*
X1633038Y0549482*
X163292Y0549509*
X1632784Y0549531*
X1632632Y0549546*
X1632274Y0549558*
Y0551058*
X1632461Y0551061*
X1632784Y0551086*
X163292Y0551107*
X1633038Y0551134*
X1633139Y0551168*
X1633223Y0551207*
X1633289Y0551253*
X1633338Y0551305*
X163337Y0551363*
Y0549253*
G37*
G36*
X1644459Y0540721D02*
X1644318Y0540536D01*
X1644193Y0540336*
X1644086Y0540121*
X1643994Y0539891*
X164392Y0539646*
X1643861Y0539386*
X164382Y0539111*
X1643795Y0538821*
X1643787Y0538516*
X1641247*
X1641238Y0538821*
X1641214Y0539111*
X1641172Y0539386*
X1641114Y0539646*
X1641039Y0539891*
X1640948Y0540121*
X164084Y0540336*
X1640716Y0540536*
X1640575Y0540721*
X1640417Y0540893*
X1644617*
X1644459Y0540721*
G37*
G36*
X1597395Y117466D02*
X1592338Y1169603D01*
X1564731*
X1563925Y1170585*
X1563968Y1170799*
X1563696Y1172165*
X1563203Y1172903*
Y1200084*
X1571687*
X1571984Y1198814*
X157156Y119818*
X1571288Y1196814*
X157156Y1195448*
X1572334Y1194291*
X1573491Y1193517*
X1574857Y1193246*
X1576223Y1193517*
X157738Y1194291*
X1578154Y1195448*
X1578426Y1196814*
X1578154Y119818*
X157773Y1198814*
X1578027Y1200084*
X1597395*
Y117466*
G37*
G36*
X1300356Y0417375D02*
X1300562Y0417226D01*
X1300788Y0417096*
X1301034Y0416983*
X13013Y0416889*
X1301587Y0416812*
X1301894Y0416753*
X1302221Y0416712*
X1302569Y0416689*
X1302937Y0416684*
X1299967Y0413714*
X1299962Y0414082*
X1299898Y0414757*
X1299839Y0415064*
X1299762Y0415351*
X1299668Y0415617*
X1299555Y0415863*
X1299425Y0416089*
X1299276Y0416295*
X129911Y041648*
X1300171Y0417541*
X1300356Y0417375*
G37*
G36*
X1486923Y0409984D02*
X1486659Y0410241D01*
X1486136Y0410672*
X1485877Y0410848*
X148562Y0410997*
X1485365Y0411118*
X1485111Y0411212*
X1484859Y041128*
X1484609Y041132*
X148436Y0411334*
Y0412834*
X1484609Y0412848*
X1484859Y0412888*
X1485111Y0412956*
X1485365Y041305*
X148562Y0413171*
X1485877Y041332*
X1486136Y0413496*
X1486397Y0413698*
X1486659Y0413927*
X1486923Y0414184*
Y0409984*
G37*
G36*
X1615031Y0412462D02*
X1615072Y0412211D01*
X1615141Y0411959*
X1615237Y0411708*
X1615361Y0411456*
X1615513Y0411204*
X1615692Y0410952*
X1615899Y04107*
X1616133Y0410448*
X1616394Y0410195*
X1612197Y0410055*
X1612448Y041033*
X161287Y0410871*
X1613042Y0411136*
X1613187Y0411398*
X1613306Y0411657*
X1613398Y0411913*
X1613464Y0412166*
X1613504Y0412415*
X1613517Y0412661*
X1615017Y0412713*
X1615031Y0412462*
G37*
G36*
X1302633Y0531018D02*
Y0460668D01*
X1302617Y0460557*
X1302591Y0460435*
X1302562Y0460337*
X1302532Y0460259*
X1302526Y0460245*
X1302453Y0460197*
X1301348Y0458543*
X130096Y0456592*
X1301348Y0454641*
X1302453Y0452987*
X1304107Y0451882*
X1306058Y0451494*
X1306235Y0451529*
X1306277Y0451515*
X1306346Y0451485*
X130643Y045144*
X130653Y0451377*
X1306618Y0451312*
X1320969Y0436961*
X1320483Y0435788*
X1314138*
X1279971Y0469955*
Y0498536*
X1279981Y0498573*
X1280008Y0498643*
X1280053Y0498734*
X128012Y0498846*
X1280214Y0498978*
X1280336Y0499127*
X1280489Y0499292*
X1280596Y0499395*
X1280872Y0499579*
X1281977Y0501233*
X1282365Y0503184*
X1281977Y0505135*
X1280872Y0506789*
X1279451Y0507738*
X1279042Y0509125*
X128115Y0511233*
X1281757Y0512143*
X1281971Y0513216*
Y0539483*
X1281757Y0540556*
X128115Y0541466*
X1277357Y0545258*
X1277333Y0545299*
X1277298Y0545377*
X1277261Y0545482*
X1277224Y0545619*
X1277197Y0545759*
X127715Y0546256*
Y0546265*
X1277205Y0546543*
X1276817Y0548494*
X1275712Y0550148*
X1274058Y0551253*
X1272107Y0551641*
X1270156Y0551253*
X1268502Y0550148*
X1267397Y0548494*
X1267009Y0546543*
X1267397Y0544592*
X1268502Y0542938*
X1269806Y0542067*
X1269963Y0540926*
X1269893Y0540598*
X1269396Y0540266*
X1268291Y0538612*
X1267903Y0536661*
X1268291Y053471*
X1269396Y0533056*
X1269632Y0532899*
X1269658Y0532871*
X1269814Y0532694*
X1269939Y0532533*
X1270036Y053239*
X1270107Y0532267*
X1270155Y0532165*
X1270185Y0532086*
X1270197Y053204*
Y0527987*
X1270411Y0526914*
X1271018Y0526004*
X1271891Y0525132*
X1271822Y0524667*
X1271628Y0524469*
X1270416Y0523843*
X1268967Y0524132*
X1268824Y0524103*
X1268791Y0524114*
X126872Y0524146*
X1268633Y0524192*
X1268532Y0524257*
X1268443Y0524323*
X126361Y0529156*
Y055262*
X126488Y0553298*
X1265889Y0552624*
X1267841Y0552236*
X1269791Y0552624*
X1271445Y0553729*
X1271547Y0553882*
X1271588Y0553903*
X1271658Y055393*
X1271749Y0553958*
X1271863Y0553984*
X1271971Y0554*
X1279652*
X1302633Y0531018*
G37*
G36*
X1270153Y0559276D02*
X1270338Y0559135D01*
X1270538Y0559011*
X1270753Y0558903*
X1270983Y0558811*
X1271228Y0558737*
X1271488Y0558679*
X1271763Y0558637*
X1272053Y0558612*
X1272358Y0558604*
Y0556064*
X1272053Y0556056*
X1271763Y0556031*
X1271488Y0555989*
X1271228Y0555931*
X1270983Y0555857*
X1270753Y0555765*
X1270538Y0555657*
X1270338Y0555533*
X1270153Y0555392*
X1269982Y0555234*
Y0559435*
X1270153Y0559276*
G37*
G36*
X1421861Y0555604D02*
X1421874Y0555361D01*
X1421912Y0555114*
X1421976Y0554861*
X1422066Y0554603*
X1422181Y055434*
X1422322Y0554072*
X1422489Y0553798*
X1422681Y055352*
X1423143Y0552948*
X1418954Y0553255*
X1419221Y0553494*
X1419461Y0553735*
X1419672Y0553977*
X1419854Y0554221*
X1420009Y0554466*
X1420136Y0554713*
X1420234Y0554962*
X1420305Y0555212*
X1420347Y0555464*
X1420361Y0555718*
X1421861Y0555604*
G37*
G36*
X1571766Y0416448D02*
X1557485Y0402167D01*
X1498996*
X1498649Y0402514*
X1498625Y0402555*
X149859Y0402633*
X1498552Y0402738*
X1498516Y0402875*
X1498489Y0403015*
X1498442Y0403512*
Y0403521*
X1498497Y0403799*
X1498109Y040575*
X1497004Y0407404*
X149535Y0408509*
X149435Y0408708*
X1493765Y0410119*
X1493775Y0410133*
X1494163Y0412084*
X1493775Y0414035*
X149267Y0415689*
X1491679Y0416351*
X1492064Y0417621*
X157128*
X1571766Y0416448*
G37*
G36*
X1408069Y0403699D02*
X1407701Y0403694D01*
X1407026Y040363*
X1406719Y0403571*
X1406432Y0403494*
X1406166Y04034*
X140592Y0403287*
X1405694Y0403157*
X1405488Y0403008*
X1405303Y0402842*
X1404242Y0403903*
X1404408Y0404088*
X1404557Y0404294*
X1404687Y0404519*
X14048Y0404766*
X1404894Y0405032*
X1404971Y0405319*
X140503Y0405626*
X1405071Y0405954*
X1405094Y0406301*
X1405099Y0406669*
X1408069Y0403699*
G37*
G36*
X1311226Y0401085D02*
X1310962Y0401341D01*
X1310439Y0401773*
X131018Y0401949*
X1309923Y0402097*
X1309668Y0402219*
X1309414Y0402313*
X1309162Y0402381*
X1308912Y0402421*
X1308663Y0402435*
Y0403935*
X1308912Y0403948*
X1309162Y0403989*
X1309414Y0404056*
X1309668Y0404151*
X1309923Y0404272*
X131018Y0404421*
X1310439Y0404596*
X13107Y0404799*
X1310962Y0405028*
X1311226Y0405285*
Y0401085*
G37*
G36*
X157561Y1198852D02*
X1575634Y1198561D01*
X1575655Y1198432*
X1575682Y1198314*
X1575715Y1198207*
X1575754Y119811*
X1575799Y1198024*
X157585Y119795*
X1575907Y1197885*
X1573807*
X1573864Y119795*
X1573915Y1198024*
X157396Y119811*
X1573999Y1198207*
X1574032Y1198314*
X1574059Y1198432*
X157408Y1198561*
X1574095Y1198701*
X1574107Y1199013*
X1575607*
X157561Y1198852*
G37*
G36*
X1462586Y1200834D02*
X1462423Y1200758D01*
X1462279Y1200631*
X1462154Y1200453*
X1462048Y1200225*
X1461962Y1199945*
X1461894Y1199615*
X1461846Y1199234*
X1461818Y1198802*
X1461808Y1198319*
X1459268*
X1459259Y1198802*
X1459184Y1199615*
X1459118Y1199945*
X1459033Y1200225*
X145893Y1200453*
X1458808Y1200631*
X1458667Y1200758*
X1458508Y1200834*
X145833Y120086*
X1462768*
X1462586Y1200834*
G37*
G36*
X1634227Y0545598D02*
X1636178Y0545211D01*
X1636603Y0545294*
X1637653Y0544209*
X1637419Y0543034*
X1637807Y0541083*
X1638912Y0539429*
X1639065Y0539327*
X1639085Y0539286*
X1639113Y0539216*
X1639141Y0539125*
X1639166Y0539011*
X1639183Y0538903*
Y0532115*
X1624711Y0517642*
X1623987Y051656*
X1623733Y0515284*
Y0406433*
X1618009Y0400709*
X1565617*
X1565131Y0401882*
X1610193Y0446945*
X1611463Y0446419*
Y0412574*
X1611449Y0412519*
X1611417Y041243*
X1611366Y0412319*
X1611292Y0412185*
X1611207Y0412055*
X1610931Y0411702*
X1610762Y0411589*
X1609657Y0409935*
X1609269Y0407984*
X1609657Y0406033*
X1610762Y0404379*
X1612416Y0403274*
X1614367Y0402886*
X1616318Y0403274*
X1617972Y0404379*
X1619077Y0406033*
X1619465Y0407984*
X1619077Y0409935*
X1617972Y0411589*
X1617696Y0411773*
X1617589Y0411876*
X1617436Y0412041*
X1617314Y041219*
X161722Y0412322*
X1617153Y0412434*
X1617108Y0412525*
X1617081Y0412595*
X1617071Y0412633*
Y053114*
X163261Y0546679*
X1634227Y0545598*
G37*
G36*
X1481625Y1200844D02*
X1481497Y1200799D01*
X1481384Y1200724*
X1481287Y1200619*
X1481204Y1200485*
X1481137Y120032*
X1481085Y1200125*
X1481047Y11999*
X1481025Y1199644*
X1481017Y119936*
X1479517*
X1479509Y1199644*
X1479487Y11999*
X147945Y1200125*
X1479397Y120032*
X1479329Y1200485*
X1479247Y1200619*
X147915Y1200724*
X1479037Y1200799*
X147891Y1200844*
X1478767Y120086*
X1481767*
X1481625Y1200844*
G37*
G36*
X1474901D02*
X1474774Y1200799D01*
X1474661Y1200724*
X1474564Y1200619*
X1474482Y1200485*
X1474414Y120032*
X1474361Y1200125*
X1474324Y11999*
X1474302Y1199644*
X1474294Y119936*
X1472794*
X1472786Y1199644*
X1472764Y11999*
X1472727Y1200125*
X1472674Y120032*
X1472607Y1200485*
X1472524Y1200619*
X1472427Y1200724*
X1472314Y1200799*
X1472187Y1200844*
X1472044Y120086*
X1475044*
X1474901Y1200844*
G37*
G36*
X1468624D02*
X1468497Y1200799D01*
X1468384Y1200724*
X1468287Y1200619*
X1468204Y1200485*
X1468137Y120032*
X1468084Y1200125*
X1468047Y11999*
X1468024Y1199644*
X1468017Y119936*
X1466517*
X1466509Y1199644*
X1466487Y11999*
X1466449Y1200125*
X1466397Y120032*
X1466329Y1200485*
X1466247Y1200619*
X1466149Y1200724*
X1466037Y1200799*
X1465909Y1200844*
X1465767Y120086*
X1468767*
X1468624Y1200844*
G37*
%LNblue_v05-2*%
%LPC*%
G36*
X1392138Y0507199D02*
Y0503073D01*
X1396264*
X1396087Y0503965*
X1394862Y0505797*
X139303Y0507022*
X1392138Y0507199*
G37*
G36*
X167899Y0546672D02*
X1674864D01*
X1675041Y054578*
X1676266Y0543948*
X1678098Y0542723*
X167899Y0542546*
Y0546672*
G37*
G36*
X1527937Y050738D02*
Y0503254D01*
X1532063*
X1531885Y0504146*
X1530661Y0505978*
X1528829Y0507203*
X1527937Y050738*
G37*
G36*
X1525397D02*
X1524505Y0507203D01*
X1522673Y0505978*
X1521448Y0504146*
X1521271Y0503254*
X1525397*
Y050738*
G37*
G36*
X1389598Y0507199D02*
X1388706Y0507022D01*
X1386874Y0505797*
X1385649Y0503965*
X1385472Y0503073*
X1389598*
Y0507199*
G37*
G36*
X1513663Y0531614D02*
X1509537D01*
Y0527488*
X1510429Y0527666*
X1512261Y052889*
X1513486Y0530722*
X1513663Y0531614*
G37*
G36*
X1495197Y050698D02*
X1494305Y0506803D01*
X1492473Y0505578*
X1491248Y0503746*
X1491071Y0502854*
X1495197*
Y050698*
G37*
G36*
X1632563Y0530214D02*
X1628437D01*
Y0526088*
X1629329Y0526266*
X1631161Y052749*
X1632385Y0529322*
X1632563Y0530214*
G37*
G36*
X1506997Y0531614D02*
X1502871D01*
X1503048Y0530722*
X1504273Y052889*
X1506105Y0527666*
X1506997Y0527488*
Y0531614*
G37*
G36*
X1525397Y0500714D02*
X1521271D01*
X1521448Y0499822*
X1522673Y049799*
X1524505Y0496765*
X1525397Y0496588*
Y0500714*
G37*
G36*
X1497737Y050698D02*
Y0502854D01*
X1501863*
X1501686Y0503746*
X1500461Y0505578*
X1498629Y0506803*
X1497737Y050698*
G37*
G36*
X1532063Y0500714D02*
X1527937D01*
Y0496588*
X1528829Y0496765*
X1530661Y049799*
X1531885Y0499822*
X1532063Y0500714*
G37*
G36*
X1685656Y0546672D02*
X168153D01*
Y0542546*
X1682422Y0542723*
X1684254Y0543948*
X1685479Y054578*
X1685656Y0546672*
G37*
G36*
X1407803Y0521101D02*
Y0516975D01*
X1411929*
X1411752Y0517867*
X1410527Y0519699*
X1408695Y0520924*
X1407803Y0521101*
G37*
G36*
X1405263D02*
X1404371Y0520924D01*
X1402539Y0519699*
X1401314Y0517867*
X1401137Y0516975*
X1405263*
Y0521101*
G37*
G36*
X1506997Y053828D02*
X1506105Y0538103D01*
X1504273Y0536878*
X1503048Y0535046*
X1502871Y0534154*
X1506997*
Y053828*
G37*
G36*
X1509537D02*
Y0534154D01*
X1513663*
X1513486Y0535046*
X1512261Y0536878*
X1510429Y0538103*
X1509537Y053828*
G37*
G36*
X1644137Y051628D02*
Y0512154D01*
X1648263*
X1648086Y0513046*
X1646861Y0514878*
X1645029Y0516103*
X1644137Y051628*
G37*
G36*
X1690497Y051698D02*
X1689605Y0516803D01*
X1687773Y0515578*
X1686548Y0513746*
X1686371Y0512854*
X1690497*
Y051698*
G37*
G36*
X1641597Y051628D02*
X1640705Y0516103D01*
X1638873Y0514878*
X1637649Y0513046*
X1637471Y0512154*
X1641597*
Y051628*
G37*
G36*
X1693037Y051698D02*
Y0512854D01*
X1697163*
X1696986Y0513746*
X1695761Y0515578*
X1693929Y0516803*
X1693037Y051698*
G37*
G36*
X1625897Y0530214D02*
X1621771D01*
X1621948Y0529322*
X1623173Y052749*
X1625005Y0526266*
X1625897Y0526088*
Y0530214*
G37*
G36*
Y053688D02*
X1625005Y0536703D01*
X1623173Y0535478*
X1621948Y0533646*
X1621771Y0532754*
X1625897*
Y053688*
G37*
G36*
X1690497Y0510314D02*
X1686371D01*
X1686548Y0509422*
X1687773Y050759*
X1689605Y0506365*
X1690497Y0506188*
Y0510314*
G37*
G36*
X1641597Y0509614D02*
X1637471D01*
X1637649Y0508722*
X1638873Y050689*
X1640705Y0505666*
X1641597Y0505488*
Y0509614*
G37*
G36*
X1648263D02*
X1644137D01*
Y0505488*
X1645029Y0505666*
X1646861Y050689*
X1648086Y0508722*
X1648263Y0509614*
G37*
G36*
X1411929Y0514435D02*
X1407803D01*
Y0510309*
X1408695Y0510486*
X1410527Y0511711*
X1411752Y0513543*
X1411929Y0514435*
G37*
G36*
X1628437Y053688D02*
Y0532754D01*
X1632563*
X1632385Y0533646*
X1631161Y0535478*
X1629329Y0536703*
X1628437Y053688*
G37*
G36*
X1697163Y0510314D02*
X1693037D01*
Y0506188*
X1693929Y0506365*
X1695761Y050759*
X1696986Y0509422*
X1697163Y0510314*
G37*
G36*
X1405263Y0514435D02*
X1401137D01*
X1401314Y0513543*
X1402539Y0511711*
X1404371Y0510486*
X1405263Y0510309*
Y0514435*
G37*
G36*
X1396264Y0500533D02*
X1392138D01*
Y0496407*
X139303Y0496584*
X1394862Y0497809*
X1396087Y0499641*
X1396264Y0500533*
G37*
G36*
X1609363Y0420014D02*
X1605237D01*
Y0415888*
X1606129Y0416066*
X1607961Y041729*
X1609186Y0419122*
X1609363Y0420014*
G37*
G36*
X1637955Y042382D02*
X1633829D01*
X1634007Y0422928*
X1635231Y0421096*
X1637063Y0419871*
X1637955Y0419694*
Y042382*
G37*
G36*
X1644621D02*
X1640495D01*
Y0419694*
X1641387Y0419871*
X1643219Y0421096*
X1644444Y0422928*
X1644621Y042382*
G37*
G36*
X1602697Y0420014D02*
X1598571D01*
X1598749Y0419122*
X1599973Y041729*
X1601805Y0416066*
X1602697Y0415888*
Y0420014*
G37*
G36*
X1548213Y0415694D02*
Y0411568D01*
X1552339*
X1552162Y041246*
X1550937Y0414292*
X1549105Y0415517*
X1548213Y0415694*
G37*
G36*
X1688597Y041978D02*
X1687705Y0419603D01*
X1685873Y0418378*
X1684648Y0416546*
X1684471Y0415654*
X1688597*
Y041978*
G37*
G36*
X1691137D02*
Y0415654D01*
X1695263*
X1695086Y0416546*
X1693861Y0418378*
X1692029Y0419603*
X1691137Y041978*
G37*
G36*
X1602697Y042668D02*
X1601805Y0426503D01*
X1599973Y0425278*
X1598749Y0423446*
X1598571Y0422554*
X1602697*
Y042668*
G37*
G36*
X1640495Y0430486D02*
Y042636D01*
X1644621*
X1644444Y0427252*
X1643219Y0429084*
X1641387Y0430309*
X1640495Y0430486*
G37*
G36*
X1230429Y0436195D02*
X1229537Y0436018D01*
X1227705Y0434793*
X122648Y0432961*
X1226303Y0432069*
X1230429*
Y0436195*
G37*
G36*
X1232969D02*
Y0432069D01*
X1237095*
X1236917Y0432961*
X1235693Y0434793*
X1233861Y0436018*
X1232969Y0436195*
G37*
G36*
X1637955Y0430486D02*
X1637063Y0430309D01*
X1635231Y0429084*
X1634007Y0427252*
X1633829Y042636*
X1637955*
Y0430486*
G37*
G36*
X1605237Y042668D02*
Y0422554D01*
X1609363*
X1609186Y0423446*
X1607961Y0425278*
X1606129Y0426503*
X1605237Y042668*
G37*
G36*
X1230429Y0429529D02*
X1226303D01*
X122648Y0428637*
X1227705Y0426805*
X1229537Y042558*
X1230429Y0425403*
Y0429529*
G37*
G36*
X1237095D02*
X1232969D01*
Y0425403*
X1233861Y042558*
X1235693Y0426805*
X1236917Y0428637*
X1237095Y0429529*
G37*
G36*
X1426396Y039317D02*
X1425504Y0392993D01*
X1423672Y0391768*
X1422447Y0389936*
X142227Y0389044*
X1426396*
Y039317*
G37*
G36*
X1428936D02*
Y0389044D01*
X1433062*
X1432885Y0389936*
X143166Y0391768*
X1429828Y0392993*
X1428936Y039317*
G37*
G36*
X1340781Y0407378D02*
X1336655D01*
X1336832Y0406486*
X1338057Y0404654*
X1339889Y0403429*
X1340781Y0403252*
Y0407378*
G37*
G36*
X1433062Y0386504D02*
X1428936D01*
Y0382378*
X1429828Y0382555*
X143166Y038378*
X1432885Y0385612*
X1433062Y0386504*
G37*
G36*
X1251999Y0395726D02*
X1248162Y0395221D01*
X1244586Y0393739*
X1241515Y0391383*
X1239159Y0388312*
X1237677Y0384737*
X1237172Y0380899*
X1237677Y0377061*
X1239159Y0373486*
X1241515Y0370415*
X1244586Y0368059*
X1248162Y0366577*
X1251999Y0366072*
X1255836Y0366577*
X1259412Y0368059*
X1262483Y0370415*
X1264839Y0373486*
X1266321Y0377061*
X1266826Y0380899*
X1266321Y0384737*
X1264839Y0388312*
X1262483Y0391383*
X1259412Y0393739*
X1255836Y0395221*
X1251999Y0395726*
G37*
G36*
X1468899D02*
X1465062Y0395221D01*
X1461486Y0393739*
X1458415Y0391383*
X1456059Y0388312*
X1454577Y0384737*
X1454072Y0380899*
X1454577Y0377061*
X1456059Y0373486*
X1458415Y0370415*
X1461486Y0368059*
X1465062Y0366577*
X1468899Y0366072*
X1472736Y0366577*
X1476312Y0368059*
X1479383Y0370415*
X1481739Y0373486*
X1483221Y0377061*
X1483726Y0380899*
X1483221Y0384737*
X1481739Y0388312*
X1479383Y0391383*
X1476312Y0393739*
X1472736Y0395221*
X1468899Y0395726*
G37*
G36*
X1426396Y0386504D02*
X142227D01*
X1422447Y0385612*
X1423672Y038378*
X1425504Y0382555*
X1426396Y0382378*
Y0386504*
G37*
G36*
X1347447Y0407378D02*
X1343321D01*
Y0403252*
X1344213Y0403429*
X1346045Y0404654*
X134727Y0406486*
X1347447Y0407378*
G37*
G36*
X1340781Y0414044D02*
X1339889Y0413866D01*
X1338057Y0412642*
X1336832Y041081*
X1336655Y0409918*
X1340781*
Y0414044*
G37*
G36*
X1343321D02*
Y0409918D01*
X1347447*
X134727Y041081*
X1346045Y0412642*
X1344213Y0413866*
X1343321Y0414044*
G37*
G36*
X1545673Y0415694D02*
X1544781Y0415517D01*
X1542949Y0414292*
X1541724Y041246*
X1541547Y0411568*
X1545673*
Y0415694*
G37*
G36*
X1695263Y0413114D02*
X1691137D01*
Y0408988*
X1692029Y0409165*
X1693861Y041039*
X1695086Y0412222*
X1695263Y0413114*
G37*
G36*
X1545673Y0409028D02*
X1541547D01*
X1541724Y0408136*
X1542949Y0406304*
X1544781Y0405079*
X1545673Y0404902*
Y0409028*
G37*
G36*
X1552339D02*
X1548213D01*
Y0404902*
X1549105Y0405079*
X1550937Y0406304*
X1552162Y0408136*
X1552339Y0409028*
G37*
G36*
X1688597Y0413114D02*
X1684471D01*
X1684648Y0412222*
X1685873Y041039*
X1687705Y0409165*
X1688597Y0408988*
Y0413114*
G37*
G36*
X1468797Y0453414D02*
X1464671D01*
X1464848Y0452522*
X1466073Y045069*
X1467905Y0449465*
X1468797Y0449288*
Y0453414*
G37*
G36*
X1511029Y0481829D02*
X1506903D01*
X150708Y0480937*
X1508305Y0479105*
X1510137Y047788*
X1511029Y0477703*
Y0481829*
G37*
G36*
X1517695D02*
X1513569D01*
Y0477703*
X1514461Y047788*
X1516293Y0479105*
X1517518Y0480937*
X1517695Y0481829*
G37*
G36*
X1456397Y0488414D02*
X1452271D01*
X1452448Y0487522*
X1453673Y048569*
X1455505Y0484465*
X1456397Y0484288*
Y0488414*
G37*
G36*
X1258716Y0480781D02*
Y0476655D01*
X1262842*
X1262665Y0477547*
X126144Y0479379*
X1259608Y0480604*
X1258716Y0480781*
G37*
G36*
X1394845Y047965D02*
X1393953Y0479473D01*
X1392121Y0478248*
X1390896Y0476416*
X1390719Y0475524*
X1394845*
Y047965*
G37*
G36*
X1397385D02*
Y0475524D01*
X1401511*
X1401334Y0476416*
X1400109Y0478248*
X1398277Y0479473*
X1397385Y047965*
G37*
G36*
X1256176Y0480781D02*
X1255284Y0480604D01*
X1253452Y0479379*
X1252227Y0477547*
X125205Y0476655*
X1256176*
Y0480781*
G37*
G36*
X1463063Y0488414D02*
X1458937D01*
Y0484288*
X1459829Y0484465*
X1461661Y048569*
X1462886Y0487522*
X1463063Y0488414*
G37*
G36*
X1495197Y0500314D02*
X1491071D01*
X1491248Y0499422*
X1492473Y049759*
X1494305Y0496365*
X1495197Y0496189*
Y0500314*
G37*
G36*
X1501863D02*
X1497737D01*
Y0496189*
X1498629Y0496365*
X1500461Y049759*
X1501686Y0499422*
X1501863Y0500314*
G37*
G36*
X1389598Y0500533D02*
X1385472D01*
X1385649Y0499641*
X1386874Y0497809*
X1388706Y0496584*
X1389598Y0496407*
Y0500533*
G37*
G36*
X1458937Y049508D02*
Y0490954D01*
X1463063*
X1462886Y0491846*
X1461661Y0493678*
X1459829Y0494903*
X1458937Y049508*
G37*
G36*
X1511029Y0488495D02*
X1510137Y0488318D01*
X1508305Y0487093*
X150708Y0485261*
X1506903Y0484369*
X1511029*
Y0488495*
G37*
G36*
X1513569D02*
Y0484369D01*
X1517695*
X1517518Y0485261*
X1516293Y0487093*
X1514461Y0488318*
X1513569Y0488495*
G37*
G36*
X1456397Y049508D02*
X1455505Y0494903D01*
X1453673Y0493678*
X1452448Y0491846*
X1452271Y0490954*
X1456397*
Y049508*
G37*
G36*
X1471337Y046008D02*
Y0455954D01*
X1475463*
X1475286Y0456846*
X1474061Y0458678*
X1472229Y0459903*
X1471337Y046008*
G37*
G36*
X1533997Y046098D02*
X1533105Y0460803D01*
X1531273Y0459578*
X1530048Y0457746*
X1529871Y0456854*
X1533997*
Y046098*
G37*
G36*
X1536537D02*
Y0456854D01*
X1540663*
X1540486Y0457746*
X1539261Y0459578*
X1537429Y0460803*
X1536537Y046098*
G37*
G36*
X1468797Y046008D02*
X1467905Y0459903D01*
X1466073Y0458678*
X1464848Y0456846*
X1464671Y0455954*
X1468797*
Y046008*
G37*
G36*
X1475463Y0453414D02*
X1471337D01*
Y0449288*
X1472229Y0449465*
X1474061Y045069*
X1475286Y0452522*
X1475463Y0453414*
G37*
G36*
X1533997Y0454314D02*
X1529871D01*
X1530048Y0453422*
X1531273Y045159*
X1533105Y0450366*
X1533997Y0450188*
Y0454314*
G37*
G36*
X1540663D02*
X1536537D01*
Y0450188*
X1537429Y0450366*
X1539261Y045159*
X1540486Y0453422*
X1540663Y0454314*
G37*
G36*
X1659197Y0461614D02*
X1655071D01*
X1655248Y0460722*
X1656473Y045889*
X1658305Y0457665*
X1659197Y0457488*
Y0461614*
G37*
G36*
X1401511Y0472984D02*
X1397385D01*
Y0468858*
X1398277Y0469035*
X1400109Y047026*
X1401334Y0472092*
X1401511Y0472984*
G37*
G36*
X1256176Y0474115D02*
X125205D01*
X1252227Y0473223*
X1253452Y0471391*
X1255284Y0470166*
X1256176Y0469989*
Y0474115*
G37*
G36*
X1262842D02*
X1258716D01*
Y0469989*
X1259608Y0470166*
X126144Y0471391*
X1262665Y0473223*
X1262842Y0474115*
G37*
G36*
X1394845Y0472984D02*
X1390719D01*
X1390896Y0472092*
X1392121Y047026*
X1393953Y0469035*
X1394845Y0468858*
Y0472984*
G37*
G36*
X1665863Y0461614D02*
X1661737D01*
Y0457488*
X1662629Y0457665*
X1664462Y045889*
X1665686Y0460722*
X1665863Y0461614*
G37*
G36*
X1659197Y046828D02*
X1658305Y0468103D01*
X1656473Y0466878*
X1655248Y0465046*
X1655071Y0464154*
X1659197*
Y046828*
G37*
G36*
X1661737D02*
Y0464154D01*
X1665863*
X1665686Y0465046*
X1664462Y0466878*
X1662629Y0468103*
X1661737Y046828*
G37*
G36*
X1444197Y0549214D02*
X1440071D01*
X1440248Y0548322*
X1441473Y054649*
X1443305Y0545265*
X1444197Y0545088*
Y0549214*
G37*
G36*
X1287138Y1155611D02*
X1283012D01*
Y1151485*
X1283904Y1151662*
X1285736Y1152887*
X1286961Y1154719*
X1287138Y1155611*
G37*
G36*
X1280472D02*
X1276346D01*
X1276524Y1154719*
X1277748Y1152887*
X127958Y1151662*
X1280472Y1151485*
Y1155611*
G37*
G36*
X1467364Y115765D02*
X1463238D01*
Y1153524*
X146413Y1153701*
X1465962Y1154926*
X1467187Y1156758*
X1467364Y115765*
G37*
G36*
X1460698D02*
X1456572D01*
X1456749Y1156758*
X1457974Y1154926*
X1459806Y1153701*
X1460698Y1153524*
Y115765*
G37*
G36*
X1207958Y1153037D02*
Y1148911D01*
X1212084*
X1211907Y1149803*
X1210682Y1151636*
X120885Y115286*
X1207958Y1153037*
G37*
G36*
X1205418D02*
X1204526Y115286D01*
X1202694Y1151636*
X1201469Y1149803*
X1201293Y1148911*
X1205418*
Y1153037*
G37*
G36*
X1336356Y1153348D02*
X133223D01*
Y1149223*
X1333122Y1149399*
X1334954Y1150624*
X1336179Y1152456*
X1336356Y1153348*
G37*
G36*
X132969D02*
X1325564D01*
X1325741Y1152456*
X1326966Y1150624*
X1328798Y1149399*
X132969Y1149223*
Y1153348*
G37*
G36*
X1283012Y1162277D02*
Y1158151D01*
X1287138*
X1286961Y1159043*
X1285736Y1160875*
X1283904Y11621*
X1283012Y1162277*
G37*
G36*
X1280472D02*
X127958Y11621D01*
X1277748Y1160875*
X1276524Y1159043*
X1276346Y1158151*
X1280472*
Y1162277*
G37*
G36*
X1460698Y1164316D02*
X1459806Y1164139D01*
X1457974Y1162914*
X1456749Y1161082*
X1456572Y116019*
X1460698*
Y1164316*
G37*
G36*
X1551129Y1161529D02*
X1548532D01*
X1548593Y1161223*
X1549486Y1159886*
X1550823Y1158993*
X1551129Y1158932*
Y1161529*
G37*
G36*
X1390046Y1159737D02*
X138592D01*
Y1155611*
X1386812Y1155788*
X1388644Y1157013*
X1389869Y1158845*
X1390046Y1159737*
G37*
G36*
X138338D02*
X1379254D01*
X1379432Y1158845*
X1380656Y1157013*
X1382488Y1155788*
X138338Y1155611*
Y1159737*
G37*
G36*
X133223Y1160014D02*
Y1155888D01*
X1336356*
X1336179Y115678*
X1334954Y1158612*
X1333122Y1159837*
X133223Y1160014*
G37*
G36*
X132969D02*
X1328798Y1159837D01*
X1326966Y1158612*
X1325741Y115678*
X1325564Y1155888*
X132969*
Y1160014*
G37*
G36*
X1212084Y1146371D02*
X1207958D01*
Y1142245*
X120885Y1142422*
X1210682Y1143647*
X1211907Y1145479*
X1212084Y1146371*
G37*
G36*
X1618363Y0984814D02*
X1614237D01*
Y0980688*
X1615129Y0980865*
X1616961Y0982091*
X1618186Y0983922*
X1618363Y0984814*
G37*
G36*
X1611697D02*
X1607571D01*
X1607748Y0983922*
X1608973Y0982091*
X1610805Y0980865*
X1611697Y0980688*
Y0984814*
G37*
G36*
X1693637Y099058D02*
Y0986454D01*
X1697763*
X1697586Y0987346*
X1696361Y0989178*
X1694529Y0990403*
X1693637Y099058*
G37*
G36*
X1691097D02*
X1690205Y0990403D01*
X1688373Y0989178*
X1687149Y0987346*
X1686971Y0986454*
X1691097*
Y099058*
G37*
G36*
X1720267Y0979911D02*
X171643Y0979406D01*
X1712854Y0977924*
X1709783Y0975568*
X1707427Y0972497*
X1705945Y0968922*
X170544Y0965084*
X1705945Y0961247*
X1707427Y0957671*
X1709783Y09546*
X1712854Y0952244*
X171643Y0950762*
X1720267Y0950257*
X1724105Y0950762*
X172768Y0952244*
X1730751Y09546*
X1733107Y0957671*
X1734589Y0961247*
X1735094Y0965084*
X1734589Y0968922*
X1733107Y0972497*
X1730751Y0975568*
X172768Y0977924*
X1724105Y0979406*
X1720267Y0979911*
G37*
G36*
X1619337Y094858D02*
Y0944454D01*
X1623463*
X1623286Y0945346*
X1622061Y0947178*
X1620229Y0948403*
X1619337Y094858*
G37*
G36*
X1697763Y0983914D02*
X1693637D01*
Y0979788*
X1694529Y0979965*
X1696361Y098119*
X1697586Y0983022*
X1697763Y0983914*
G37*
G36*
X1691097D02*
X1686971D01*
X1687149Y0983022*
X1688373Y098119*
X1690205Y0979965*
X1691097Y0979788*
Y0983914*
G37*
G36*
X158111Y1139856D02*
Y113573D01*
X1585236*
X1585059Y1136622*
X1583834Y1138454*
X1582002Y1139679*
X158111Y1139856*
G37*
G36*
X157857D02*
X1577678Y1139679D01*
X1575846Y1138454*
X1574621Y1136622*
X1574444Y113573*
X157857*
Y1139856*
G37*
G36*
X1205418Y1146371D02*
X1201293D01*
X1201469Y1145479*
X1202694Y1143647*
X1204526Y1142422*
X1205418Y1142245*
Y1146371*
G37*
G36*
X1556434Y1142983D02*
X1554483Y1142595D01*
X1552829Y114149*
X1552672Y1141254*
X1552644Y1141228*
X1552467Y1141072*
X1552306Y1140947*
X1552163Y114085*
X155204Y1140779*
X155194Y1140731*
X1551859Y1140701*
X1551813Y1140689*
X1523398*
X1523352Y1140701*
X1523272Y1140731*
X1523171Y1140779*
X1523048Y114085*
X1522931Y114093*
X1522546Y1141248*
X1522539Y1141254*
X1522382Y114149*
X1520728Y1142595*
X1518777Y1142983*
X1516826Y1142595*
X1515172Y114149*
X1514067Y1139836*
X1513679Y1137885*
X1514067Y1135934*
X1515172Y113428*
X1516826Y1133175*
X1518777Y1132787*
X1520728Y1133175*
X1522382Y113428*
X1522539Y1134516*
X1522567Y1134542*
X1522744Y1134698*
X1522905Y1134823*
X1523048Y113492*
X1523171Y1134991*
X1523272Y1135039*
X1523352Y1135069*
X1523398Y1135081*
X1551813*
X1551859Y1135069*
X155194Y1135039*
X155204Y1134991*
X1552163Y113492*
X155228Y113484*
X1552665Y1134522*
X1552672Y1134516*
X1552829Y113428*
X1554483Y1133175*
X1556434Y1132787*
X1558385Y1133175*
X1560039Y113428*
X1561144Y1135934*
X1561532Y1137885*
X1561144Y1139836*
X1560039Y114149*
X1558385Y1142595*
X1556434Y1142983*
G37*
G36*
X1614237Y099148D02*
Y0987354D01*
X1618363*
X1618186Y0988246*
X1616961Y0990078*
X1615129Y0991303*
X1614237Y099148*
G37*
G36*
X1611697D02*
X1610805Y0991303D01*
X1608973Y0990078*
X1607748Y0988246*
X1607571Y0987354*
X1611697*
Y099148*
G37*
G36*
X1585236Y113319D02*
X158111D01*
Y1129064*
X1582002Y1129241*
X1583834Y1130466*
X1585059Y1132298*
X1585236Y113319*
G37*
G36*
X157857D02*
X1574444D01*
X1574621Y1132298*
X1575846Y1130466*
X1577678Y1129241*
X157857Y1129064*
Y113319*
G37*
G36*
X1463238Y1164316D02*
Y116019D01*
X1467364*
X1467187Y1161082*
X1465962Y1162914*
X146413Y1164139*
X1463238Y1164316*
G37*
G36*
X1520421Y1206059D02*
X1512069D01*
Y1194874*
X1513289Y1195034*
X151561Y1195996*
X1517603Y1197525*
X1519132Y1199518*
X1520093Y1201839*
X1520421Y1204329*
Y1206059*
G37*
G36*
X1445921D02*
X1437569D01*
Y1194874*
X1438789Y1195034*
X144111Y1195996*
X1443103Y1197525*
X1444632Y1199518*
X1445593Y1201839*
X1445921Y1204329*
Y1206059*
G37*
G36*
X1435029Y1219784D02*
X1433809Y1219623D01*
X1431488Y1218662*
X1429495Y1217133*
X1427966Y121514*
X1427005Y121282*
X1426677Y1210329*
Y1208599*
X1435029*
Y1219784*
G37*
G36*
X1491339Y1206059D02*
X1487819D01*
Y1198289*
X1491339*
Y1206059*
G37*
G36*
X1256045Y1196599D02*
Y1192473D01*
X1260171*
X1259994Y1193365*
X1258769Y1195197*
X1256937Y1196422*
X1256045Y1196599*
G37*
G36*
X1253505D02*
X1252613Y1196422D01*
X1250781Y1195197*
X1249556Y1193365*
X1249379Y1192473*
X1253505*
Y1196599*
G37*
G36*
X1435029Y1206059D02*
X1426677D01*
Y1204329*
X1427005Y1201839*
X1427966Y1199518*
X1429495Y1197525*
X1431488Y1195996*
X1433809Y1195034*
X1435029Y1194874*
Y1206059*
G37*
G36*
X1509529D02*
X1501177D01*
Y1204329*
X1501505Y1201839*
X1502466Y1199518*
X1503995Y1197525*
X1505988Y1195996*
X1508309Y1195034*
X1509529Y1194874*
Y1206059*
G37*
G36*
X144316Y1244059D02*
X1436069D01*
Y1233885*
X1436963Y1234002*
X143898Y1234838*
X1440711Y1236167*
X144204Y1237898*
X1442876Y1239915*
X144316Y1242079*
Y1244059*
G37*
G36*
X1511029D02*
X1503937D01*
Y1242079*
X1504222Y1239915*
X1505058Y1237898*
X1506386Y1236167*
X1508118Y1234838*
X1510135Y1234002*
X1511029Y1233885*
Y1244059*
G37*
G36*
X1520661D02*
X1513569D01*
Y1233885*
X1514463Y1234002*
X151648Y1234838*
X1518211Y1236167*
X151954Y1237898*
X1520376Y1239915*
X1520661Y1242079*
Y1244059*
G37*
G36*
X1433529D02*
X1426437D01*
Y1242079*
X1426722Y1239915*
X1427558Y1237898*
X1428886Y1236167*
X1430618Y1234838*
X1432635Y1234002*
X1433529Y1233885*
Y1244059*
G37*
G36*
X1491339Y1216369D02*
X1487819D01*
Y1208599*
X1491339*
Y1216369*
G37*
G36*
X1498549Y1224446D02*
X1496208Y1223981D01*
X1494223Y1222655*
X1492897Y122067*
X1492432Y1218329*
X1492897Y1215988*
X1494223Y1214003*
X1496208Y1212677*
X1498549Y1212212*
X1500186Y1212537*
X150134Y1211566*
X1501177Y1210329*
Y1208599*
X1509529*
Y1219784*
X1508309Y1219623*
X1505988Y1218662*
X1505907Y1218601*
X1504508Y1219127*
X1504201Y122067*
X1502875Y1222655*
X150089Y1223981*
X1498549Y1224446*
G37*
G36*
X1448549D02*
X1446208Y1223981D01*
X1444223Y1222655*
X1442897Y122067*
X144259Y1219127*
X1441191Y1218601*
X144111Y1218662*
X1438789Y1219623*
X1437569Y1219784*
Y1208599*
X1445921*
Y1210329*
X1445758Y1211566*
X1446912Y1212537*
X1448549Y1212212*
X145089Y1212677*
X1452875Y1214003*
X1454201Y1215988*
X1454667Y1218329*
X1454201Y122067*
X1452875Y1222655*
X145089Y1223981*
X1448549Y1224446*
G37*
G36*
X1512069Y1219784D02*
Y1208599D01*
X1520421*
Y1210329*
X1520093Y121282*
X1519132Y121514*
X1517603Y1217133*
X151561Y1218662*
X1513289Y1219623*
X1512069Y1219784*
G37*
G36*
X1590573Y1191918D02*
Y1187792D01*
X1594699*
X1594522Y1188684*
X1593297Y1190516*
X1591465Y1191741*
X1590573Y1191918*
G37*
G36*
X1570507Y1184891D02*
X1566381D01*
X1566558Y1183999*
X1567783Y1182167*
X1569615Y1180943*
X1570507Y1180765*
Y1184891*
G37*
G36*
X161721Y1181745D02*
X1613084D01*
Y1177619*
X1613976Y1177796*
X1615808Y1179021*
X1617033Y1180853*
X161721Y1181745*
G37*
G36*
X1588033Y1185252D02*
X1583907D01*
X1584085Y118436*
X1585309Y1182528*
X1587141Y1181303*
X1588033Y1181126*
Y1185252*
G37*
G36*
X1577173Y1184891D02*
X1573047D01*
Y1180765*
X1573939Y1180943*
X1575771Y1182167*
X1576996Y1183999*
X1577173Y1184891*
G37*
G36*
X138592Y1166403D02*
Y1162277D01*
X1390046*
X1389869Y1163169*
X1388644Y1165001*
X1386812Y1166226*
X138592Y1166403*
G37*
G36*
X138338D02*
X1382488Y1166226D01*
X1380656Y1165001*
X1379432Y1163169*
X1379254Y1162277*
X138338*
Y1166403*
G37*
G36*
X1610544Y1181745D02*
X1606418D01*
X1606596Y1180853*
X160782Y1179021*
X1609652Y1177796*
X1610544Y1177619*
Y1181745*
G37*
G36*
X1222899Y1193426D02*
X1219061Y1192921D01*
X1215486Y1191439*
X1212415Y1189083*
X1210059Y1186012*
X1208577Y1182437*
X1208072Y1178599*
X1208577Y1174761*
X1210059Y1171186*
X1212415Y1168115*
X1215486Y1165759*
X1219061Y1164277*
X1222899Y1163772*
X1226736Y1164277*
X1230312Y1165759*
X1233383Y1168115*
X1235739Y1171186*
X1237221Y1174761*
X1237726Y1178599*
X1237221Y1182437*
X1235739Y1186012*
X1233383Y1189083*
X1230312Y1191439*
X1226736Y1192921*
X1222899Y1193426*
G37*
G36*
X1570507Y1191557D02*
X1569615Y119138D01*
X1567783Y1190155*
X1566558Y1188323*
X1566381Y1187431*
X1570507*
Y1191557*
G37*
G36*
X1260171Y1189933D02*
X1256045D01*
Y1185807*
X1256937Y1185984*
X1258769Y1187209*
X1259994Y1189041*
X1260171Y1189933*
G37*
G36*
X1588033Y1191918D02*
X1587141Y1191741D01*
X1585309Y1190516*
X1584085Y1188684*
X1583907Y1187792*
X1588033*
Y1191918*
G37*
G36*
X1573047Y1191557D02*
Y1187431D01*
X1577173*
X1576996Y1188323*
X1575771Y1190155*
X1573939Y119138*
X1573047Y1191557*
G37*
G36*
X1610544Y1188411D02*
X1609652Y1188234D01*
X160782Y1187009*
X1606596Y1185177*
X1606418Y1184285*
X1610544*
Y1188411*
G37*
G36*
X1594699Y1185252D02*
X1590573D01*
Y1181126*
X1591465Y1181303*
X1593297Y1182528*
X1594522Y118436*
X1594699Y1185252*
G37*
G36*
X1253505Y1189933D02*
X1249379D01*
X1249556Y1189041*
X1250781Y1187209*
X1252613Y1185984*
X1253505Y1185807*
Y1189933*
G37*
G36*
X1613084Y1188411D02*
Y1184285D01*
X161721*
X1617033Y1185177*
X1615808Y1187009*
X1613976Y1188234*
X1613084Y1188411*
G37*
G36*
X1616797Y094858D02*
X1615905Y0948403D01*
X1614073Y0947178*
X1612848Y0945346*
X1612671Y0944454*
X1616797*
Y094858*
G37*
G36*
X1255275Y0586212D02*
X1251149D01*
Y0582086*
X1252041Y0582264*
X1253873Y0583488*
X1255098Y058532*
X1255275Y0586212*
G37*
G36*
X1248609D02*
X1244483D01*
X124466Y058532*
X1245885Y0583488*
X1247717Y0582264*
X1248609Y0582086*
Y0586212*
G37*
G36*
X1673778Y0590962D02*
X1669652D01*
Y0586836*
X1670544Y0587013*
X1672376Y0588238*
X1673601Y059007*
X1673778Y0590962*
G37*
G36*
X1667112D02*
X1662986D01*
X1663164Y059007*
X1664388Y0588238*
X166622Y0587013*
X1667112Y0586836*
Y0590962*
G37*
G36*
X1420586Y0574134D02*
X141646D01*
Y0570008*
X1417352Y0570185*
X1419184Y057141*
X1420409Y0573242*
X1420586Y0574134*
G37*
G36*
X141392D02*
X1409794D01*
X1409971Y0573242*
X1411196Y057141*
X1413028Y0570185*
X141392Y0570008*
Y0574134*
G37*
G36*
X141646Y05808D02*
Y0576674D01*
X1420586*
X1420409Y0577566*
X1419184Y0579398*
X1417352Y0580623*
X141646Y05808*
G37*
G36*
X141392D02*
X1413028Y0580623D01*
X1411196Y0579398*
X1409971Y0577566*
X1409794Y0576674*
X141392*
Y05808*
G37*
G36*
X1344657Y0591586D02*
X1340531D01*
X1340709Y0590694*
X1341933Y0588862*
X1343765Y0587637*
X1344657Y058746*
Y0591586*
G37*
G36*
X1667112Y0597628D02*
X166622Y0597451D01*
X1664388Y0596226*
X1663164Y0594394*
X1662986Y0593502*
X1667112*
Y0597628*
G37*
G36*
X1629093Y0596066D02*
X1624967D01*
Y059194*
X1625859Y0592117*
X1627691Y0593342*
X1628916Y0595174*
X1629093Y0596066*
G37*
G36*
X1344657Y0598252D02*
X1343765Y0598075D01*
X1341933Y059685*
X1340709Y0595018*
X1340531Y0594126*
X1344657*
Y0598252*
G37*
G36*
X1669652Y0597628D02*
Y0593502D01*
X1673778*
X1673601Y0594394*
X1672376Y0596226*
X1670544Y0597451*
X1669652Y0597628*
G37*
G36*
X1248609Y0592878D02*
X1247717Y0592701D01*
X1245885Y0591476*
X124466Y0589644*
X1244483Y0588752*
X1248609*
Y0592878*
G37*
G36*
X1351323Y0591586D02*
X1347197D01*
Y058746*
X1348089Y0587637*
X1349921Y0588862*
X1351146Y0590694*
X1351323Y0591586*
G37*
G36*
X1622427Y0596066D02*
X1618301D01*
X1618478Y0595174*
X1619703Y0593342*
X1621536Y0592117*
X1622427Y059194*
Y0596066*
G37*
G36*
X1251149Y0592878D02*
Y0588752D01*
X1255275*
X1255098Y0589644*
X1253873Y0591476*
X1252041Y0592701*
X1251149Y0592878*
G37*
G36*
X1602582Y0554749D02*
X1598456D01*
X1598633Y0553857*
X1599858Y0552025*
X160169Y05508*
X1602582Y0550623*
Y0554749*
G37*
G36*
X168153Y0553339D02*
Y0549212D01*
X1685656*
X1685479Y0550104*
X1684254Y0551936*
X1682422Y0553161*
X168153Y0553339*
G37*
G36*
X1444197Y055588D02*
X1443305Y0555703D01*
X1441473Y0554478*
X1440248Y0552646*
X1440071Y0551754*
X1444197*
Y055588*
G37*
G36*
X1609248Y0554749D02*
X1605122D01*
Y0550623*
X1606014Y05508*
X1607846Y0552025*
X1609071Y0553857*
X1609248Y0554749*
G37*
G36*
X1545097Y0552814D02*
X1540971D01*
X1541148Y0551922*
X1542373Y055009*
X1544205Y0548865*
X1545097Y0548688*
Y0552814*
G37*
G36*
X1450863Y0549214D02*
X1446737D01*
Y0545088*
X1447629Y0545265*
X1449461Y054649*
X1450686Y0548322*
X1450863Y0549214*
G37*
G36*
X167899Y0553339D02*
X1678098Y0553161D01*
X1676266Y0551936*
X1675041Y0550104*
X1674864Y0549212*
X167899*
Y0553339*
G37*
G36*
X1551763Y0552814D02*
X1547637D01*
Y0548688*
X1548529Y0548865*
X1550361Y055009*
X1551586Y0551922*
X1551763Y0552814*
G37*
G36*
X1446737Y055588D02*
Y0551754D01*
X1450863*
X1450686Y0552646*
X1449461Y0554478*
X1447629Y0555703*
X1446737Y055588*
G37*
G36*
X1396446Y0564188D02*
X139232D01*
Y0560062*
X1393212Y056024*
X1395044Y0561464*
X1396269Y0563296*
X1396446Y0564188*
G37*
G36*
X138978D02*
X1385654D01*
X1385832Y0563296*
X1387056Y0561464*
X1388888Y056024*
X138978Y0560062*
Y0564188*
G37*
G36*
X139232Y0570854D02*
Y0566728D01*
X1396446*
X1396269Y056762*
X1395044Y0569452*
X1393212Y0570677*
X139232Y0570854*
G37*
G36*
X138978D02*
X1388888Y0570677D01*
X1387056Y0569452*
X1385832Y056762*
X1385654Y0566728*
X138978*
Y0570854*
G37*
G36*
X1547637Y055948D02*
Y0555354D01*
X1551763*
X1551586Y0556246*
X1550361Y0558078*
X1548529Y0559303*
X1547637Y055948*
G37*
G36*
X1545097D02*
X1544205Y0559303D01*
X1542373Y0558078*
X1541148Y0556246*
X1540971Y0555354*
X1545097*
Y055948*
G37*
G36*
X1605122Y0561415D02*
Y0557289D01*
X1609248*
X1609071Y0558181*
X1607846Y0560013*
X1606014Y0561238*
X1605122Y0561415*
G37*
G36*
X1602582D02*
X160169Y0561238D01*
X1599858Y0560013*
X1598633Y0558181*
X1598456Y0557289*
X1602582*
Y0561415*
G37*
G36*
X1347197Y0598252D02*
Y0594126D01*
X1351323*
X1351146Y0595018*
X1349921Y059685*
X1348089Y0598075*
X1347197Y0598252*
G37*
G36*
X1733697Y078558D02*
X1732805Y0785403D01*
X1730973Y0784178*
X1729748Y0782346*
X1729571Y0781454*
X1733697*
Y078558*
G37*
G36*
X1740363Y0778914D02*
X1736237D01*
Y0774788*
X1737129Y0774965*
X1738961Y077619*
X1740186Y0778022*
X1740363Y0778914*
G37*
G36*
X1662253Y0786623D02*
X1658127D01*
X1658304Y0785731*
X1659529Y0783899*
X1661361Y0782674*
X1662253Y0782497*
Y0786623*
G37*
G36*
X1736237Y078558D02*
Y0781454D01*
X1740363*
X1740186Y0782346*
X1738961Y0784178*
X1737129Y0785403*
X1736237Y078558*
G37*
G36*
X1679934Y0704315D02*
X1679042Y0704138D01*
X167721Y0702913*
X1675985Y0701081*
X1675808Y0700189*
X1679934*
Y0704315*
G37*
G36*
X16866Y0697649D02*
X1682474D01*
Y0693523*
X1683366Y06937*
X1685198Y0694925*
X1686423Y0696757*
X16866Y0697649*
G37*
G36*
X1733697Y0778914D02*
X1729571D01*
X1729748Y0778022*
X1730973Y077619*
X1732805Y0774965*
X1733697Y0774788*
Y0778914*
G37*
G36*
X1682474Y0704315D02*
Y0700189D01*
X16866*
X1686423Y0701081*
X1685198Y0702913*
X1683366Y0704138*
X1682474Y0704315*
G37*
G36*
X1712047Y091034D02*
X171035Y0910117D01*
X1708769Y0909462*
X1707411Y090842*
X1706369Y0907062*
X1705714Y0905481*
X1705491Y0903784*
X1705714Y0902087*
X1706369Y0900506*
X1707411Y0899148*
X1708769Y0898106*
X171035Y0897451*
X1712047Y0897228*
X1713744Y0897451*
X1715325Y0898106*
X1716683Y0899148*
X1717725Y0900506*
X171838Y0902087*
X1718603Y0903784*
X171838Y0905481*
X1717725Y0907062*
X1716683Y090842*
X1715325Y0909462*
X1713744Y0910117*
X1712047Y091034*
G37*
G36*
X1682047Y0912105D02*
X1679893Y0911822D01*
X1677886Y091099*
X1676163Y0909668*
X1674841Y0907945*
X1674009Y0905938*
X1673726Y0903784*
X1674009Y090163*
X1674841Y0899623*
X1676163Y08979*
X1677886Y0896578*
X1679893Y0895746*
X1682047Y0895463*
X1684201Y0895746*
X1686208Y0896578*
X1687931Y08979*
X1689253Y0899623*
X1690085Y090163*
X1690368Y0903784*
X1690085Y0905938*
X1689253Y0907945*
X1687931Y0909668*
X1686208Y091099*
X1684201Y0911822*
X1682047Y0912105*
G37*
G36*
X1623463Y0941914D02*
X1619337D01*
Y0937788*
X1620229Y0937966*
X1622061Y093919*
X1623286Y0941022*
X1623463Y0941914*
G37*
G36*
X1616797D02*
X1612671D01*
X1612848Y0941022*
X1614073Y093919*
X1615905Y0937966*
X1616797Y0937788*
Y0941914*
G37*
G36*
X1662253Y0793289D02*
X1661361Y0793112D01*
X1659529Y0791887*
X1658304Y0790055*
X1658127Y0789163*
X1662253*
Y0793289*
G37*
G36*
X1668919Y0786623D02*
X1664793D01*
Y0782497*
X1665685Y0782674*
X1667517Y0783899*
X1668742Y0785731*
X1668919Y0786623*
G37*
G36*
X1689967Y0821411D02*
X168613Y0820906D01*
X1682554Y0819424*
X1679483Y0817068*
X1677127Y0813997*
X1675645Y0810422*
X167514Y0806584*
X1675645Y0802746*
X1677127Y0799171*
X1679483Y07961*
X1682554Y0793744*
X168613Y0792262*
X1689967Y0791757*
X1693805Y0792262*
X169738Y0793744*
X1700451Y07961*
X1702807Y0799171*
X1704289Y0802746*
X1704794Y0806584*
X1704289Y0810422*
X1702807Y0813997*
X1700451Y0817068*
X169738Y0819424*
X1693805Y0820906*
X1689967Y0821411*
G37*
G36*
X1664793Y0793289D02*
Y0789163D01*
X1668919*
X1668742Y0790055*
X1667517Y0791887*
X1665685Y0793112*
X1664793Y0793289*
G37*
G36*
X1602491Y0618016D02*
Y061389D01*
X1606617*
X160644Y0614782*
X1605215Y0616614*
X1603383Y0617839*
X1602491Y0618016*
G37*
G36*
X1599951D02*
X1599059Y0617839D01*
X1597227Y0616614*
X1596003Y0614782*
X1595825Y061389*
X1599951*
Y0618016*
G37*
G36*
X1666274Y0623615D02*
X1662148D01*
Y0619489*
X166304Y0619666*
X1664872Y0620891*
X1666097Y0622723*
X1666274Y0623615*
G37*
G36*
X1659608D02*
X1655482D01*
X1655659Y0622723*
X1656884Y0620891*
X1658716Y0619666*
X1659608Y0619489*
Y0623615*
G37*
G36*
X1606617Y061135D02*
X1602491D01*
Y0607224*
X1603383Y0607401*
X1605215Y0608626*
X160644Y0610458*
X1606617Y061135*
G37*
G36*
X1624967Y0602732D02*
Y0598606D01*
X1629093*
X1628916Y0599498*
X1627691Y060133*
X1625859Y0602555*
X1624967Y0602732*
G37*
G36*
X1622427D02*
X1621536Y0602555D01*
X1619703Y060133*
X1618478Y0599498*
X1618301Y0598606*
X1622427*
Y0602732*
G37*
G36*
X1599951Y061135D02*
X1595825D01*
X1596003Y0610458*
X1597227Y0608626*
X1599059Y0607401*
X1599951Y0607224*
Y061135*
G37*
G36*
X1590425Y1122827D02*
X123607D01*
X123529Y1122672*
X1234628Y112223*
X1234186Y1121568*
X1234031Y1120788*
Y0605184*
X1234186Y0604404*
X1234628Y0603742*
X123529Y06033*
X123607Y0603145*
X1590425*
X1591205Y06033*
X1591867Y0603742*
X1592309Y0604404*
X1592464Y0605184*
Y1120788*
X1592309Y1121568*
X1591867Y112223*
X1591205Y1122672*
X1590425Y1122827*
G37*
G36*
X1702497Y064618D02*
X1701605Y0646003D01*
X1699773Y0644779*
X1698548Y0642946*
X1698371Y0642054*
X1702497*
Y064618*
G37*
G36*
X1705037D02*
Y0642054D01*
X1709163*
X1708986Y0642946*
X1707761Y0644779*
X1705929Y0646003*
X1705037Y064618*
G37*
G36*
X1679934Y0697649D02*
X1675808D01*
X1675985Y0696757*
X167721Y0694925*
X1679042Y06937*
X1679934Y0693523*
Y0697649*
G37*
G36*
X1709163Y0639514D02*
X1705037D01*
Y0635388*
X1705929Y0635565*
X1707761Y063679*
X1708986Y0638622*
X1709163Y0639514*
G37*
G36*
X1662148Y0630281D02*
Y0626155D01*
X1666274*
X1666097Y0627047*
X1664872Y0628879*
X166304Y0630104*
X1662148Y0630281*
G37*
G36*
X1659608D02*
X1658716Y0630104D01*
X1656884Y0628879*
X1655659Y0627047*
X1655482Y0626155*
X1659608*
Y0630281*
G37*
G36*
X1702497Y0639514D02*
X1698371D01*
X1698548Y0638622*
X1699773Y063679*
X1701605Y0635565*
X1702497Y0635388*
Y0639514*
G37*
%LNblue_v05-3*%
%LPD*%
G36*
X1521183Y1139729D02*
X1521706Y1139296D01*
X1521965Y1139121*
X1522222Y1138972*
X1522477Y1138851*
X1522731Y1138756*
X1522984Y1138689*
X1523233Y1138649*
X1523482Y1138635*
Y1137135*
X1523233Y1137121*
X1522984Y1137081*
X1522731Y1137013*
X1522477Y1136919*
X1522222Y1136797*
X1521965Y113665*
X1521706Y1136474*
X1521445Y1136271*
X1521183Y1136041*
X1520919Y1135785*
Y1139985*
X1521183Y1139729*
G37*
G36*
X1554292Y1135785D02*
X1554028Y1136041D01*
X1553505Y1136474*
X1553247Y113665*
X1552989Y1136797*
X1552734Y1136919*
X155248Y1137013*
X1552228Y1137081*
X1551978Y1137121*
X1551729Y1137135*
Y1138635*
X1551978Y1138649*
X1552228Y1138689*
X155248Y1138756*
X1552734Y1138851*
X1552989Y1138972*
X1553247Y1139121*
X1553505Y1139296*
X1553766Y1139499*
X1554028Y1139729*
X1554292Y1139985*
Y1135785*
G37*
G54D10*
X1626639Y1206469D02*
X1656999D01*
X1626529Y1216849D02*
X1636029D01*
G54D13*
X1560399Y1170799D03*
X1552399Y1162799D03*
Y1170799D03*
X1556399D03*
X1560399Y1166799D03*
X1552399D03*
X1556399D03*
X1574857Y1196814D03*
G54D25*
X1573552Y120847D03*
Y121897D03*
X1560122Y1208532D03*
Y1219032D03*
X1626519Y1216839D03*
Y1206339D03*
X1586957Y1208564D03*
Y1219064D03*
X1533064Y1208441D03*
Y1218941D03*
X1614587Y1208411D03*
Y1218911D03*
X1600315Y1208451D03*
Y1218951D03*
X1546564Y1208441D03*
Y1218941D03*
G54D38*
X1221143Y0588403D02*
Y0589035D01*
X1220938Y0588198D02*
X1221143Y0588403D01*
X1212699Y0596437D02*
X1220938Y0588198D01*
X1281032Y0557334D02*
X1305967Y0532399D01*
X1267841Y0557334D02*
X1281032D01*
X1260276Y0527775D02*
Y0561768D01*
Y0527775D02*
X1268967Y0519085D01*
X1260276Y0561768D02*
X1267607Y0569099D01*
X1482667Y0473084D02*
X1563261Y0553678D01*
X1267607Y0569099D02*
X1367667D01*
X1367167Y0497405D02*
X1390864Y0521102D01*
X1367167Y0451384D02*
Y0497405D01*
X1268967Y0519034D02*
Y0519085D01*
X135227Y054139D02*
X1393713Y0582834D01*
X1322367Y054139D02*
X135227D01*
X1393713Y0582834D02*
X1393727Y058282D01*
X1473842Y0539409D02*
Y0563877D01*
Y0539409D02*
X1550767Y0462484D01*
X1460538Y1196181D02*
Y1208637D01*
X1460767Y1208866*
X1415899Y0437684D02*
X1446599Y0406984D01*
X1479214*
X1624367Y0635651D02*
Y0773884D01*
X1550767Y0462484D02*
X1564867Y0448384D01*
X1277267Y0448784D02*
X1320667Y0405384D01*
Y0391884D02*
Y0405384D01*
X1367167Y0451384D02*
X1409984D01*
X1431684Y0473084*
X1482667*
X1627067Y0405052D02*
Y0515284D01*
X1761999Y0482687D02*
Y0593088D01*
Y0482687D02*
X1763239Y0481447D01*
X1761999Y0441589D02*
Y0456962D01*
X1763239Y0458202*
Y0481447*
X1618365Y0629858D02*
X1622038Y0633531D01*
X1622247*
X1624367Y0635651*
X1398292Y0587385D02*
X1414388D01*
X1416985Y0593655D02*
X1416997Y0593643D01*
X1418866Y0598195D02*
X1418878Y0598183D01*
X1378786Y0598195D02*
X1418866D01*
X1392223Y0593655D02*
X1416985D01*
X1393727Y058282D02*
X1398292Y0587385D01*
X1367667Y0569099D02*
X1392223Y0593655D01*
X1361377Y0580786D02*
X1378786Y0598195D01*
X1305967Y0456678D02*
Y0532399D01*
Y0456678D02*
X1324961Y0437684D01*
X1415899*
X1454327Y118997D02*
X1460538Y1196181D01*
X1212699Y0596437D02*
Y1132421D01*
X1270248Y118997*
X1454327*
X1416997Y0593643D02*
X1605077D01*
X1624635Y0613201*
Y0627261*
X1418878Y0598183D02*
X1603196D01*
X1620095Y0615082*
Y0622935*
X1618365Y0624664D02*
X1620095Y0622935D01*
X1618365Y0624664D02*
Y0629858D01*
X1642567Y0543384D02*
X1643567Y0544384D01*
X1627067Y0515284D02*
X1642567Y0530784D01*
X1642517Y0530834D02*
X1642567Y0530784D01*
X1642517Y0530834D02*
Y0543034D01*
X1563261Y0553678D02*
X1563701Y0553238D01*
X158672*
X1642517Y0543034D02*
Y0559254D01*
X1650567Y0567304*
Y0650284*
X1693042Y0606387D02*
X17487D01*
X1761999Y0593088*
X1692742Y0606687D02*
X1693042Y0606387D01*
X161939Y0397375D02*
X1627067Y0405052D01*
X1562343Y0397375D02*
X161939D01*
X1479214Y0406984D02*
X1490855Y0395343D01*
X1560311*
X1560364Y0395396*
X1560588*
X1560364D02*
X1562343Y0397375D01*
G54D39*
X121939Y0600092D02*
X1230755Y0588727D01*
X122289Y0601542D02*
X1234255Y0590177D01*
X122639Y0602992D02*
Y1125576D01*
Y0602992D02*
X1237755Y0591627D01*
X1230755Y0469996D02*
Y0588727D01*
X1234255Y0474264D02*
Y0590177D01*
X1237755Y0478896D02*
Y0591627D01*
X1400241Y0398841D02*
X1408099Y0406699D01*
X1337221Y0398841D02*
X1400241D01*
X1268017Y0468045D02*
X1337221Y0398841D01*
X1275467Y0514884D02*
Y0525521D01*
X1273001Y0527987D02*
X1275467Y0525521D01*
X1273001Y0527987D02*
Y0536661D01*
X1272107Y0546543D02*
X1279167Y0539483D01*
Y0513216D02*
Y0539483D01*
X1271517Y0505566D02*
X1279167Y0513216D01*
X1598554Y0569189D02*
X1606763D01*
X1593909Y0573834D02*
X1598554Y0569189D01*
X1606763D02*
X1613716Y0576142D01*
X1602592Y0577334D02*
X1603486Y057644D01*
X1347067Y0493184D02*
X1382432Y0528549D01*
X1329767Y0492384D02*
X1373404Y0536021D01*
X1329767Y0458784D02*
Y0492384D01*
X1478185Y0570334D02*
X1484563Y0563956D01*
X1533164Y1208541D02*
X1546564D01*
X1533064Y1208441D02*
X1533451Y1208054D01*
Y1202651D02*
Y1208054D01*
Y1202651D02*
X1534788Y1201314D01*
X153888D02*
X1556399Y1183795D01*
X1534788Y1201314D02*
X153888D01*
X1560122Y1219041D02*
Y1223958D01*
X1562778Y1226614*
X1552399Y1178835D02*
X1552414Y117885D01*
X1552399Y1170799D02*
Y1178835D01*
X1556399Y1170799D02*
Y1183795D01*
X1546564Y1219041D02*
X1560122D01*
X1562778Y1226614D02*
X1612245D01*
X160713Y1210019D02*
Y1217699D01*
X1605765Y1219064D02*
X160713Y1217699D01*
X1598341Y1219064D02*
X1605765D01*
X160713Y1210019D02*
X1608738Y1208411D01*
X1560399Y1170799D02*
Y1212322D01*
X1623279Y1214551D02*
Y1215953D01*
Y1214551D02*
X1624231D01*
X1620321Y1218911D02*
X1623279Y1215953D01*
X1614587Y1218911D02*
X1620321D01*
X1614587D02*
Y1224272D01*
X1612245Y1226614D02*
X1614587Y1224272D01*
X1608738Y1208411D02*
X1614587D01*
X1620012*
X1622184Y1206239*
X1473544Y1195497D02*
Y1207334D01*
X1467267Y119539D02*
Y1207334D01*
X1480267Y1194898D02*
Y1207334D01*
X1414784Y0444484D02*
X1447184Y0412084D01*
X1489065*
X1414914Y0432984D02*
X1447299Y0400599D01*
X1312977Y0432984D02*
X1414914D01*
X1375267Y0444484D02*
X1414784D01*
X1556399Y1170799D02*
X1556899Y1171299D01*
X1560399Y1166799D02*
X1593499D01*
X1550599D02*
X1552399D01*
X1548149Y1168799D02*
X1550599Y1166799D01*
X1573757Y1208564D02*
X1573857Y1208464D01*
X1546464Y1218941D02*
X1546564Y1219041D01*
X1533064Y1218941D02*
X1546464D01*
X1533064Y1208441D02*
X1533164Y1208541D01*
X1449167Y0425284D02*
D01*
X1465667Y0441784*
X1303967Y0393284D02*
Y0396784D01*
X1305334Y0403185D02*
X1313368D01*
X1465667Y0441784D02*
X1566767D01*
X1634317Y0643553D02*
X1634367Y0643503D01*
X1637817Y0645003D02*
X1637867Y0644953D01*
X1641317Y0646453D02*
X1641367Y0646403D01*
X1644817Y0647902D02*
X1644867Y0647852D01*
Y0652716D02*
Y0782835D01*
X1634317Y0643553D02*
Y0787134D01*
X1637817Y0645003D02*
Y0655565D01*
X1637867Y0655615*
X1641317Y0654115D02*
X1641367Y0654165D01*
X1641317Y0646453D02*
Y0654115D01*
X1644817Y0647902D02*
Y0652666D01*
X1644867Y0652716*
X1653467Y0949884D02*
X1664967Y0961384D01*
X1649967Y0956084D02*
X1664967Y0971084D01*
X1573067Y0464185D02*
Y0491182D01*
Y0464185D02*
X1574267Y0462984D01*
X1572768Y0461484D02*
X1574267Y0462984D01*
X1558867Y0426184D02*
X1573867D01*
X1602067Y0454384*
X1558868Y0437984D02*
X1580717D01*
X1555267Y0434384D02*
X1558868Y0437984D01*
X1566767Y0441784D02*
X1573067Y0448084D01*
Y0461184*
X1580717Y0437984D02*
X1598567Y0455834D01*
X1572768Y0461484D02*
X1573067Y0461184D01*
X1612567Y0408601D02*
X1614267Y0410301D01*
X1660467Y0937284D02*
X1665067Y0941884D01*
X1634317Y0787134D02*
X1641267Y0794084D01*
X1637867Y0655615D02*
Y0785734D01*
X1644767Y0792634*
X1641367Y0654165D02*
Y0784285D01*
X1648267Y0791185*
X1644867Y0782835D02*
X1651767Y0789735D01*
Y0928584*
X1665067Y0941884*
X1644767Y0792634D02*
Y0941084D01*
X1641267Y0794084D02*
Y0947284D01*
X1650067Y0956084*
X1644767Y0941084D02*
X1653567Y0949884D01*
X1648267Y0791185D02*
Y0934984D01*
X1664967Y0951684*
X1277167Y0468794D02*
Y0503084D01*
X1277267Y0503184*
Y0503084D02*
Y0503184D01*
X1277167Y0468794D02*
X1312977Y0432984D01*
X1271517Y0469494D02*
Y0505566D01*
X1268017Y0468045D02*
Y0507434D01*
X1275467Y0514884*
X1573757Y1219064D02*
X1586957D01*
X1584841D02*
X1598341D01*
X1593499Y1166799D02*
X16002Y1173499D01*
Y1207949*
X1574057Y1207364D02*
X1575157Y1208464D01*
X1574857Y1196814D02*
Y1207164D01*
X1584841Y1208564D02*
X1598341D01*
X1271517Y0469494D02*
X1322312Y0418699D01*
X1408117D02*
X1408417Y0418999D01*
X1322312Y0418699D02*
X1408117D01*
X1622184Y1206239D02*
X1626919D01*
X1664328Y0577599D02*
X1706615D01*
X1778462Y0508519D02*
Y0594738D01*
X1777219Y0482322D02*
X1778469Y0483572D01*
Y0509589*
X1777219Y0458625D02*
Y0482322D01*
Y0458625D02*
X1778469Y0457375D01*
Y0441589D02*
Y0457375D01*
X1428747Y0559496D02*
X1430658D01*
X1444995Y0573834*
X1593909*
X1421111Y0558081D02*
X1440364Y0577334D01*
X1602592*
X1438295Y0583739D02*
X162205D01*
X1434852Y0555558D02*
X143488D01*
X1449656Y0570334*
X1478185*
X1411659Y054464D02*
Y0557103D01*
X1438295Y0583739*
X1373404Y0536021D02*
X1415309D01*
X142569Y0546402*
X1425696*
X1434852Y0555558*
X1420892Y0550965D02*
Y055332D01*
X1421111Y0550965D02*
Y0558081D01*
X1382432Y0528549D02*
X140862D01*
X1426356Y0510813*
Y0510726D02*
Y0510813D01*
X1230755Y0469996D02*
X1303967Y0396784D01*
X1234255Y0474264D02*
X1305334Y0403185D01*
X1237755Y0478896D02*
X1302967Y0413684D01*
X1552399Y115324D02*
Y1162799D01*
X1552166Y1153007D02*
X1552399Y115324D01*
X1533835Y1181065D02*
X1540859Y1174041D01*
X1548149Y1168799D02*
Y1177008D01*
X1529877Y1187631D02*
X1537526D01*
X1548149Y1177008*
X1533543Y1171711D02*
X153412Y1171134D01*
X1466548Y1181179D02*
X1480267Y1194898D01*
X1462726Y1184679D02*
X1473544Y1195497D01*
X145759Y1185713D02*
X1467267Y119539D01*
X1517459Y1175213D02*
X1529877Y1187631D01*
X1464098Y1178713D02*
X1466548Y1181163D01*
Y1181179*
X1460359Y1182213D02*
X1462726Y118458D01*
Y1184679*
X1355199Y1151799D02*
X1375111Y1171711D01*
X1533543*
X1304849Y1150549D02*
X1329513Y1175213D01*
X1517459*
X122639Y1125576D02*
X1279527Y1178713D01*
X1464098*
X122289Y1127026D02*
X1278077Y1182213D01*
X121939Y1128475D02*
X1276628Y1185713D01*
X122289Y0601542D02*
Y1127026D01*
X1278077Y1182213D02*
X1460359D01*
X121939Y0600092D02*
Y1128475D01*
X1276628Y1185713D02*
X145759D01*
X1386001Y1146363D02*
X1404031Y1128333D01*
X1385506Y1146363D02*
X1386001D01*
X1598567Y0455834D02*
Y0536641D01*
X1602067Y0454384D02*
Y0535191D01*
X1605567Y0451234D02*
Y0533742D01*
X1598567Y0536641D02*
X1634367Y0572441D01*
Y0643503*
X1602067Y0535191D02*
X1637867Y0570992D01*
Y0644953*
X1605567Y0533742D02*
X1641367Y0569542D01*
Y0646403*
X1630823Y0553808D02*
X1644867Y0567852D01*
Y0647852*
X1609067Y0449784D02*
Y0532051D01*
X1630823Y0553807*
Y0553808*
X1614267Y0410301D02*
Y0532301D01*
X1632274Y0550308*
X1636178*
X1574758Y0420425D02*
X1605567Y0451234D01*
X1477673Y0419119D02*
Y041999D01*
X1486257Y0420425D02*
X1574758D01*
X1484202Y041837D02*
X1486257Y0420425D01*
X1479293Y041837D02*
X1484202D01*
X1477673Y041999D02*
X1479293Y041837D01*
X1493399Y0403799D02*
X1497835Y0399363D01*
X1558646*
X1609067Y0449784*
X1540859Y1154059D02*
Y1174041D01*
Y1154059D02*
X1545085Y1149833D01*
X1559409Y1163789D02*
X1565663Y1157535D01*
X1559152Y1163789D02*
X1559409D01*
X1556399Y1166542D02*
Y1166799D01*
Y1166542D02*
X1559152Y1163789D01*
X1404031Y1128333D02*
X1561929D01*
X1565663Y1132067*
Y1157535*
X1518777Y1137885D02*
X1556434D01*
G54D43*
X1682047Y0903784D03*
X1712047D03*
X1448549Y1218329D03*
X1498549D03*
G54D44*
X1783719Y0469589D03*
X1756219D03*
G54D45*
X1512299Y1245329D03*
X1434799D03*
G54D46*
X1510799Y1207329D03*
X1436299D03*
G54D47*
X1468899Y0380899D03*
X1720267Y0965084D03*
X1222899Y1178599D03*
X1689967Y0806584D03*
X1251999Y0380899D03*
G54D48*
X1221143Y0589035D03*
X1342051Y0408648D03*
X1267841Y0557334D03*
X1273001Y0536661D03*
X1272107Y0546543D03*
X1345927Y0592856D03*
X1668382Y0592232D03*
X1601221Y061262D03*
X1603486Y057644D03*
X1613716Y0576142D03*
X1361403Y0580712D03*
X1390864Y0521102D03*
X1406533Y0515705D03*
X1426356Y0510726D03*
X1268967Y0519034D03*
X1322367Y054139D03*
X1484563Y0563956D03*
X1473842Y0563877D03*
X1589303Y1186522D03*
X1571777Y1186161D03*
X1447299Y0400599D03*
X1479099Y0418299D03*
X1489065Y0412084D03*
X1493399Y0403799D03*
X1611814Y1183015D03*
X1449167Y0425284D03*
X1320667Y0391884D03*
X1303967Y0393284D03*
X1313368Y0403185D03*
X1302967Y0413684D03*
X1375267Y0444484D03*
X1624367Y0773884D03*
X1650567Y0650284D03*
X1573067Y0491182D03*
X1558867Y0426184D03*
X1555267Y0434384D03*
X1564867Y0448384D03*
X1692367Y0985184D03*
X1612967Y0986084D03*
X1618067Y0943184D03*
X1703767Y0640784D03*
X1681204Y0698919D03*
X1663523Y0787893D03*
X1660467Y0462884D03*
X1691767Y0511584D03*
X1642867Y0510884D03*
X1689867Y0414384D03*
X139105Y0565458D03*
X1573067Y0461184D03*
X1734967Y0780184D03*
X1627167Y0531484D03*
X1603967Y0421284D03*
X1445467Y0550484D03*
X1664967Y0961384D03*
Y0971084D03*
X1231699Y0430799D03*
X1535267Y0455584D03*
X1512299Y0483099D03*
X1526667Y0501984D03*
X1508267Y0532884D03*
X1496467Y0501584D03*
X1457667Y0489684D03*
X1470067Y0454684D03*
X1546367Y0554084D03*
X1257446Y0475385D03*
X1367167Y0451384D03*
X1329767Y0458784D03*
X1347067Y0493184D03*
X1664967Y0951684D03*
X1665067Y0941884D03*
X1614367Y0407984D03*
X1277267Y0503184D03*
Y0448784D03*
X1408099Y0418799D03*
X1660878Y0624885D03*
X1355199Y1151799D03*
X1304849Y1150549D03*
X133096Y1154618D03*
X1461968Y115892D03*
X1408099Y0406699D03*
X1409984Y0451384D03*
X1778462Y0594738D03*
X168026Y0547942D03*
X1706615Y0577599D03*
X1624635Y0627261D03*
X1621975Y0583646D03*
X1414388Y0587385D03*
X141519Y0575404D03*
X1429102Y055794D03*
X1411659Y054464D03*
X1420892Y0550965D03*
X1390868Y0501803D03*
X1396115Y0474254D03*
X1249879Y0587482D03*
X1306058Y0456592D03*
X1533779Y1180948D03*
X1534178Y1170948D03*
X1281742Y1156881D03*
X1254775Y1191203D03*
X1206688Y1147641D03*
X1385644Y1146526D03*
X138465Y1161007D03*
X1623697Y0597336D03*
X1639225Y042509D03*
X1642517Y0543034D03*
X1603852Y0556019D03*
X158672Y0553238D03*
X1636178Y0550308D03*
X1664383Y0577481D03*
X1692922Y0606567D03*
X1546943Y0410298D03*
X1427666Y0387774D03*
X157984Y113446D03*
X1545089Y1149801D03*
X1518777Y1137885D03*
X1556434D03*
G54D49*
X1656179Y1206459D03*
X1636029Y1216849D03*
G54D50*
X1778469Y0441589D03*
Y0497589D03*
X1761469Y0441589D03*
Y0497589D03*
G54D51*
X1460549Y1207329D03*
X1467049D03*
X1473549D03*
X1480049D03*
X1486549D03*
M02*